<svg width="659" height="194" viewBox="0 0 659 194" fill="none" xmlns="http://www.w3.org/2000/svg">
<path d="M312.596 159.34C294.321 159.34 280.153 154.72 270.092 145.48C260.031 136.137 255 122.534 255 104.67C255 86.7033 259.877 73.1 269.63 63.86C279.486 54.62 293.5 50 311.672 50C319.577 50 326.713 50.8213 333.078 52.464C339.443 54.004 344.782 56.2113 349.094 59.086C350.223 59.8047 350.788 60.7287 350.788 61.858C350.788 62.5767 350.429 63.6547 349.71 65.092L343.088 76.334C342.472 77.6687 341.651 78.336 340.624 78.336C340.008 78.336 338.981 77.9767 337.544 77.258C331.384 73.87 324.146 72.176 315.83 72.176C306.282 72.176 298.89 74.948 293.654 80.492C288.521 85.9333 285.954 93.9927 285.954 104.67C285.954 115.347 288.726 123.458 294.27 129.002C299.814 134.546 307.36 137.318 316.908 137.318C325.327 137.318 332.77 135.624 339.238 132.236C340.675 131.517 341.702 131.158 342.318 131.158C343.242 131.158 344.063 131.774 344.782 133.006L351.712 144.864C352.328 145.891 352.636 146.815 352.636 147.636C352.636 148.56 352.02 149.484 350.788 150.408C342.164 156.363 329.433 159.34 312.596 159.34Z" fill="#191326"/>
<path d="M362.755 157.03C360.599 157.03 359.521 156.106 359.521 154.258C359.521 153.437 359.778 152.41 360.291 151.178L399.407 57.546C400.229 55.5953 401.101 54.2607 402.025 53.542C403.052 52.7207 404.541 52.31 406.491 52.31H420.505C422.456 52.31 423.893 52.7207 424.817 53.542C425.844 54.2607 426.768 55.5953 427.589 57.546L466.705 151.178C467.219 152.41 467.475 153.385 467.475 154.104C467.475 155.028 467.167 155.747 466.551 156.26C466.038 156.773 465.268 157.03 464.241 157.03H440.371C438.934 157.03 437.805 156.773 436.983 156.26C436.162 155.644 435.495 154.669 434.981 153.334L429.591 138.55H397.251L392.015 153.334C391.502 154.669 390.835 155.644 390.013 156.26C389.192 156.773 388.011 157.03 386.471 157.03H362.755ZM422.815 117.606L413.421 91.426L404.027 117.606H422.815Z" fill="#191326"/>
<path d="M570.204 151.178C570.923 151.999 571.282 152.975 571.282 154.104C571.282 155.028 570.974 155.747 570.358 156.26C569.845 156.773 569.075 157.03 568.048 157.03H544.178C542.741 157.03 541.663 156.927 540.944 156.722C540.226 156.414 539.558 155.849 538.942 155.028L508.758 111.6V149.33C508.758 151.999 508.142 153.95 506.91 155.182C505.678 156.414 503.574 157.03 500.596 157.03H485.658C482.681 157.03 480.576 156.414 479.344 155.182C478.215 153.95 477.65 151.999 477.65 149.33V60.164C477.65 57.4947 478.266 55.544 479.498 54.312C480.73 52.9773 482.784 52.31 485.658 52.31H500.596C503.574 52.31 505.678 52.9773 506.91 54.312C508.142 55.544 508.758 57.4947 508.758 60.164V97.124L537.71 54.466C538.224 53.6447 538.84 53.08 539.558 52.772C540.38 52.464 541.56 52.31 543.1 52.31H566.816C567.843 52.31 568.613 52.5667 569.126 53.08C569.742 53.5933 570.05 54.312 570.05 55.236C570.05 56.3653 569.691 57.3407 568.972 58.162L536.016 104.208L570.204 151.178Z" fill="#191326"/>
<path d="M587.172 157.03C584.195 157.03 582.09 156.414 580.858 155.182C579.729 153.95 579.164 151.999 579.164 149.33V60.164C579.164 57.4947 579.78 55.544 581.012 54.312C582.244 52.9773 584.297 52.31 587.172 52.31H651.082C653.957 52.31 655.907 52.926 656.934 54.158C657.961 55.2873 658.474 57.238 658.474 60.01V67.094C658.474 69.866 657.961 71.868 656.934 73.1C655.907 74.2293 653.957 74.794 651.082 74.794H610.272V93.582H637.222C640.097 93.582 642.047 94.198 643.074 95.43C644.203 96.5593 644.768 98.51 644.768 101.282V108.058C644.768 110.83 644.203 112.832 643.074 114.064C642.047 115.193 640.097 115.758 637.222 115.758H610.272V134.7H650.928C653.803 134.7 655.753 135.316 656.78 136.548C657.807 137.677 658.32 139.628 658.32 142.4V149.484C658.32 152.153 657.807 154.104 656.78 155.336C655.753 156.465 653.803 157.03 650.928 157.03H587.172Z" fill="#191326"/>
<path fill-rule="evenodd" clip-rule="evenodd" d="M8.03883 115.536C8.013 116.096 8 116.659 8 117.223C8 119.356 8.18573 121.462 8.5479 123.536H8V126.801C8 128.395 8.10374 129.974 8.30733 131.536C12.2802 162.016 54.2772 185.999 105.5 185.999C156.723 185.999 198.72 162.016 202.693 131.536C202.896 129.974 203 128.395 203 126.801V123.536H202.452C202.814 121.462 203 119.356 203 117.223C203 116.659 202.987 116.096 202.961 115.536C201.49 83.6222 158.419 58.0254 105.5 58.0254C52.5815 58.0254 9.50965 83.6222 8.03883 115.536ZM0.0313554 115.536C0.756487 96.0642 13.9885 79.7075 32.4052 68.5257C51.4962 56.9345 77.3587 50.0254 105.5 50.0254C133.641 50.0254 159.504 56.9345 178.595 68.5257C197.011 79.7075 210.244 96.0642 210.969 115.536H211V126.801C211 147.015 197.541 163.995 178.595 175.498C159.504 187.09 133.641 193.999 105.5 193.999C77.3587 193.999 51.4962 187.09 32.4052 175.498C13.4591 163.995 0 147.015 0 126.801V115.536H0.0313554Z" fill="#606063"/>
<path d="M203 126.803C203 159.497 159.348 186 105.5 186C51.6522 186 8 159.497 8 126.803V117.432H203V126.803Z" fill="#BEBEBE"/>
<path d="M203 117.223C203 149.917 159.348 176.421 105.5 176.421C51.6522 176.421 8 149.917 8 117.223C8 84.5291 51.6522 58.0254 105.5 58.0254C159.348 58.0254 203 84.5291 203 117.223Z" fill="#FAF9FA"/>
<path fill-rule="evenodd" clip-rule="evenodd" d="M23.0011 100.5C23.0009 100.537 23.0009 100.574 23.0009 100.611C23.0009 103.303 23.391 105.939 24.1387 108.5H23V111.966C23 113.497 23.1261 115.009 23.3722 116.5C27.0894 139.008 58.1871 156.577 95.9996 156.577C133.812 156.577 164.91 139.008 168.627 116.5C168.873 115.009 168.999 113.497 168.999 111.966V108.5H167.862C168.589 106.009 168.978 103.447 168.999 100.831C169 100.758 169 100.684 169 100.611C169 100.574 169 100.537 169 100.5C168.902 75.9129 136.256 56 96.0004 56C55.7446 56 23.0993 75.9129 23.0011 100.5ZM15.001 100.5H15V111.966C15 128.127 25.6863 141.462 40.2095 150.337C54.8699 159.296 74.6146 164.577 95.9996 164.577C117.385 164.577 137.129 159.296 151.79 150.337C166.313 141.462 176.999 128.127 176.999 111.966V100.861C177 100.777 177 100.694 177 100.611C177 84.4503 166.314 71.1152 151.791 62.24C137.13 53.2808 117.385 48 96.0004 48C74.6155 48 54.8708 53.2808 40.2104 62.24C25.7205 71.0948 15.0499 84.3892 15.001 100.5Z" fill="#633001"/>
<path d="M168.999 111.967C168.999 136.605 136.316 156.578 95.9996 156.578C55.683 156.578 23 136.605 23 111.967V101.5H168.999V111.967Z" fill="#FEDC90"/>
<path d="M168.999 100.611C168.999 125.249 136.316 145.222 95.9996 145.222C55.683 145.222 23 125.249 23 100.611C23 75.973 55.683 56 95.9996 56C136.316 56 168.999 75.973 168.999 100.611Z" fill="#D1884F"/>
<path fill-rule="evenodd" clip-rule="evenodd" d="M45.0011 76.4996C45.0009 76.5367 45.0009 76.5738 45.0009 76.6108C45.0009 79.3028 45.391 81.939 46.1387 84.4996H45V87.9664C45 89.4967 45.1261 91.009 45.3722 92.4996C49.0894 115.008 80.1871 132.577 118 132.577C155.812 132.577 186.91 115.008 190.627 92.4996C190.873 91.009 190.999 89.4967 190.999 87.9664V84.4996H189.862C190.589 82.0089 190.978 79.4465 190.999 76.8309C191 76.7576 191 76.6842 191 76.6108C191 76.5738 191 76.5367 191 76.4996C190.902 51.9129 158.256 32 118 32C77.7446 32 45.0993 51.9129 45.0011 76.4996ZM37.001 76.4996H37V87.9664C37 104.127 47.6863 117.462 62.2095 126.337C76.8699 135.296 96.6146 140.577 118 140.577C139.385 140.577 159.129 135.296 173.79 126.337C188.313 117.462 198.999 104.127 198.999 87.9664V76.8606C199 76.7774 199 76.6941 199 76.6108C199 60.4503 188.314 47.1152 173.791 38.24C159.13 29.2808 139.385 24 118 24C96.6155 24 76.8708 29.2808 62.2104 38.24C47.7205 47.0948 37.0499 60.3892 37.001 76.4996Z" fill="#633001"/>
<path d="M190.999 87.9668C190.999 112.605 158.316 132.578 118 132.578C77.683 132.578 45 112.605 45 87.9668V77.5H190.999V87.9668Z" fill="#FEDC90"/>
<path d="M190.999 76.6108C190.999 101.249 158.316 121.222 118 121.222C77.683 121.222 45 101.249 45 76.6108C45 51.973 77.683 32 118 32C158.316 32 190.999 51.973 190.999 76.6108Z" fill="#D1884F"/>
<path fill-rule="evenodd" clip-rule="evenodd" d="M23.0011 52.4996C23.0009 52.5367 23.0009 52.5738 23.0009 52.6108C23.0009 55.3028 23.391 57.939 24.1387 60.4996H23V63.9664C23 65.4967 23.1261 67.009 23.3722 68.4996C27.0894 91.0084 58.1871 108.577 95.9996 108.577C133.812 108.577 164.91 91.0084 168.627 68.4996C168.873 67.009 168.999 65.4967 168.999 63.9664V60.4996H167.862C168.589 58.0089 168.978 55.4465 168.999 52.8309C169 52.7576 169 52.6842 169 52.6108C169 52.5738 169 52.5367 169 52.4996C168.902 27.9129 136.256 8 96.0004 8C55.7446 8 23.0993 27.9129 23.0011 52.4996ZM15.001 52.4996H15V63.9664C15 80.127 25.6863 93.4621 40.2095 102.337C54.8699 111.296 74.6146 116.577 95.9996 116.577C117.385 116.577 137.129 111.296 151.79 102.337C166.313 93.4621 176.999 80.127 176.999 63.9664V52.8606C177 52.7774 177 52.6941 177 52.6108C177 36.4503 166.314 23.1152 151.791 14.24C137.13 5.28081 117.385 0 96.0004 0C74.6155 0 54.8708 5.28081 40.2104 14.24C25.7205 23.0948 15.0499 36.3892 15.001 52.4996Z" fill="#633001"/>
<path d="M168.999 63.9668C168.999 88.6047 136.316 108.578 95.9996 108.578C55.683 108.578 23 88.6047 23 63.9668V53.5H168.999V63.9668Z" fill="#FEDC90"/>
<path d="M168.999 52.6108C168.999 77.2487 136.316 97.2217 95.9996 97.2217C55.683 97.2217 23 77.2487 23 52.6108C23 27.973 55.683 8 95.9996 8C136.316 8 168.999 27.973 168.999 52.6108Z" fill="#D1884F"/>
<path fill-rule="evenodd" clip-rule="evenodd" d="M40.2678 55.3865C40.2678 63.6121 46.2449 70.9793 55.6745 75.9361L49.1412 87.2521L49.1426 87.2529H49.1412V115.892C49.1412 119.679 52.2113 122.749 55.9984 122.749C59.7855 122.749 62.8555 119.679 62.8555 115.892V93.1155L69.8845 80.941C74.3789 81.8941 79.2034 82.4117 84.2245 82.4117C108.501 82.4117 128.181 70.3121 128.181 55.3865C128.181 40.4609 108.501 28.3613 84.2245 28.3613C59.9479 28.3613 40.2678 40.4609 40.2678 55.3865Z" fill="url(#paint0_linear)"/>
<path fill-rule="evenodd" clip-rule="evenodd" d="M55.6745 75.9361C54.63 75.387 53.6279 74.8084 52.6715 74.2023C44.9941 69.3367 40.2678 62.7009 40.2678 55.3865C40.2678 40.4609 59.9479 28.3613 84.2245 28.3613C108.501 28.3613 128.181 40.4609 128.181 55.3865C128.181 70.3121 108.501 82.4117 84.2245 82.4117C79.2034 82.4117 74.3789 81.8941 69.8845 80.941L62.8555 93.1155V115.892C62.8555 119.679 59.7855 122.749 55.9984 122.749C52.2113 122.749 49.1412 119.679 49.1412 115.892V87.2529L55.6745 75.9361ZM42.1412 87.3733V115.892C42.1412 123.545 48.3453 129.749 55.9984 129.749C63.6515 129.749 69.8555 123.545 69.8555 115.892V94.9911L73.5012 88.6766C76.9639 89.1591 80.5525 89.4117 84.2245 89.4117C97.4438 89.4117 109.747 86.1316 118.973 80.4594C128.085 74.8573 135.181 66.1899 135.181 55.3865C135.181 44.5831 128.085 35.9158 118.973 30.3137C109.747 24.6414 97.4438 21.3613 84.2245 21.3613C71.0052 21.3613 58.7022 24.6414 49.4762 30.3137C40.3644 35.9158 33.2678 44.5831 33.2678 55.3865C33.2678 64.8681 38.6986 72.676 46.244 78.2703L43.1274 83.6684C42.8303 84.1657 42.5931 84.7031 42.4259 85.2705C42.2211 85.9623 42.1284 86.6713 42.1412 87.3733Z" fill="#633001"/>
<path d="M54 44C54 51.732 63.8497 58 76 58C88.1503 58 98 51.732 98 44C98 36.268 88.1503 30 76 30C63.8497 30 54 36.268 54 44Z" fill="#9E7200"/>
<path d="M54 38H98V44H54V38Z" fill="#9E7200"/>
<path d="M54 38C54 45.732 63.8497 52 76 52C88.1503 52 98 45.732 98 38C98 30.268 88.1503 24 76 24C63.8497 24 54 30.268 54 38Z" fill="#F0B90B"/>
<path d="M67.6516 36.3126L73.8526 32.3666C75.1628 31.5328 76.8373 31.5328 78.1476 32.3666L84.3486 36.3126C85.5836 37.0986 85.5836 38.9014 84.3486 39.6873L78.1476 43.6334C76.8373 44.4672 75.1628 44.4672 73.8526 43.6334L67.6516 39.6873C66.4166 38.9014 66.4166 37.0986 67.6516 36.3126Z" fill="#9E7200"/>
<path fill-rule="evenodd" clip-rule="evenodd" d="M56.6855 22.1949C61.9516 18.8437 68.7992 17 76 17C83.2008 17 90.0484 18.8437 95.3145 22.1949C100.498 25.4932 105 30.9106 105 38V44C105 51.0894 100.498 56.5068 95.3145 59.8051C90.0484 63.1563 83.2008 65 76 65C68.7992 65 61.9516 63.1563 56.6855 59.8051C51.5025 56.5068 47 51.0894 47 44V38C47 30.9106 51.5025 25.4932 56.6855 22.1949ZM76 24C63.8497 24 54 30.268 54 38V44C54 51.732 63.8497 58 76 58C88.1503 58 98 51.732 98 44V38C98 30.268 88.1503 24 76 24Z" fill="#633001"/>
<defs>
<linearGradient id="paint0_linear" x1="84.7" y1="29.266" x2="84.7" y2="122.04" gradientUnits="userSpaceOnUse">
<stop stop-color="#9F4A08"/>
<stop offset="0.370494" stop-color="#7D3900"/>
<stop offset="1" stop-color="#8D4104"/>
</linearGradient>
</defs>
</svg>
