<svg width="128" height="128" viewBox="0 0 128 128" fill="none" xmlns="http://www.w3.org/2000/svg">
<rect width="128" height="128" fill="url(#paint0_linear)"/>
<path fill-rule="evenodd" clip-rule="evenodd" d="M22.4289 71.0319C22.4179 71.2709 22.4123 71.5108 22.4123 71.7515C22.4123 72.6611 22.4915 73.5595 22.646 74.4443H22.4123V75.837C22.4123 76.5168 22.4566 77.1904 22.5434 77.8567C24.238 90.8579 42.1514 101.088 64 101.088C85.8486 101.088 103.762 90.8579 105.457 77.8567C105.543 77.1904 105.588 76.5168 105.588 75.837V74.4443H105.354C105.508 73.5595 105.588 72.6611 105.588 71.7515C105.588 71.5108 105.582 71.2709 105.571 71.0319C104.944 57.4191 86.5719 46.5008 64 46.5008C41.4281 46.5008 23.0562 57.4191 22.4289 71.0319ZM19.0134 71.0319C19.3227 62.7262 24.9667 55.7493 32.8221 50.9797C40.9652 46.0355 51.9966 43.0884 64 43.0884C76.0034 43.0884 87.0348 46.0355 95.1779 50.9797C103.033 55.7493 108.677 62.7262 108.987 71.0319H109V75.837C109 84.4593 103.259 91.7021 95.1779 96.6088C87.0348 101.553 76.0034 104.5 64 104.5C51.9966 104.5 40.9652 101.553 32.8221 96.6088C24.7408 91.7021 19 84.4593 19 75.837V71.0319H19.0134Z" fill="#606063"/>
<path d="M105.587 75.8376C105.587 89.7831 86.968 101.088 63.9998 101.088C41.0315 101.088 22.4121 89.7831 22.4121 75.8376V71.8403H105.587V75.8376Z" fill="#BEBEBE"/>
<path d="M105.587 71.7514C105.587 85.697 86.968 97.0021 63.9998 97.0021C41.0315 97.0021 22.4121 85.697 22.4121 71.7514C22.4121 57.8059 41.0315 46.5007 63.9998 46.5007C86.968 46.5007 105.587 57.8059 105.587 71.7514Z" fill="#FAF9FA"/>
<path fill-rule="evenodd" clip-rule="evenodd" d="M28.8107 64.618C28.8107 64.6338 28.8106 64.6497 28.8106 64.6655C28.8106 65.8137 28.9771 66.9382 29.296 68.0304H28.8103V69.5092C28.8103 70.1619 28.8641 70.807 28.9691 71.4428C30.5546 81.0439 43.819 88.5379 59.9475 88.5379C76.0761 88.5379 89.3405 81.0439 90.926 71.4428C91.031 70.807 91.0848 70.1619 91.0848 69.5092V68.0304H90.5998C90.91 66.968 91.076 65.875 91.0848 64.7594C91.085 64.7281 91.0852 64.6968 91.0852 64.6655C91.0852 64.6497 91.0851 64.6338 91.0851 64.618C91.0432 54.1306 77.1186 45.6368 59.9479 45.6368C42.7771 45.6368 28.8526 54.1306 28.8107 64.618ZM25.3984 64.618H25.3979V69.5092C25.3979 76.4024 29.9561 82.0905 36.1508 85.8763C42.4041 89.6978 50.826 91.9503 59.9475 91.9503C69.0691 91.9503 77.491 89.6978 83.7442 85.8763C89.9389 82.0905 94.4971 76.4024 94.4971 69.5092V64.772C94.4974 64.7365 94.4975 64.701 94.4975 64.6655C94.4975 57.7722 89.9393 52.0841 83.7446 48.2984C77.4914 44.4769 69.0695 42.2244 59.9479 42.2244C50.8263 42.2244 42.4044 44.4769 36.1512 48.2984C29.9707 52.0754 25.4193 57.7461 25.3984 64.618Z" fill="#633001"/>
<path d="M91.0851 69.5093C91.0851 80.0186 77.1444 88.538 59.9478 88.538C42.7512 88.538 28.8105 80.0186 28.8105 69.5093V65.0447H91.0851V69.5093Z" fill="#FEDC90"/>
<path d="M91.0851 64.6654C91.0851 75.1747 77.1444 83.6941 59.9478 83.6941C42.7512 83.6941 28.8105 75.1747 28.8105 64.6654C28.8105 54.1562 42.7512 45.6367 59.9478 45.6367C77.1444 45.6367 91.0851 54.1562 91.0851 64.6654Z" fill="#D1884F"/>
<path fill-rule="evenodd" clip-rule="evenodd" d="M38.195 54.381C38.195 54.3968 38.1949 54.4126 38.1949 54.4284C38.1949 55.5767 38.3613 56.7011 38.6802 57.7934H38.1945V59.2721C38.1945 59.9249 38.2483 60.5699 38.3533 61.2058C39.9388 70.8068 53.2033 78.3008 69.3318 78.3008C85.4603 78.3008 98.7248 70.8068 100.31 61.2058C100.415 60.5699 100.469 59.9249 100.469 59.2721V57.7934H99.9841C100.294 56.7309 100.46 55.638 100.469 54.5223C100.469 54.491 100.469 54.4597 100.469 54.4284C100.469 54.4126 100.469 54.3968 100.469 54.381C100.427 43.8935 86.5029 35.3997 69.3322 35.3997C52.1614 35.3997 38.2369 43.8935 38.195 54.381ZM34.7827 54.381H34.7822V59.2721C34.7822 66.1654 39.3404 71.8535 45.5351 75.6392C51.7883 79.4607 60.2102 81.7132 69.3318 81.7132C78.4534 81.7132 86.8753 79.4607 93.1285 75.6392C99.3232 71.8535 103.881 66.1654 103.881 59.2721V54.5349C103.882 54.4994 103.882 54.4639 103.882 54.4284C103.882 47.5352 99.3236 41.8471 93.1289 38.0613C86.8756 34.2398 78.4537 31.9873 69.3322 31.9873C60.2106 31.9873 51.7887 34.2398 45.5355 38.0613C39.355 41.8384 34.8035 47.5091 34.7827 54.381Z" fill="#633001"/>
<path d="M100.469 59.2722C100.469 69.7815 86.5282 78.3009 69.3316 78.3009C52.135 78.3009 38.1943 69.7815 38.1943 59.2722V54.8076H100.469V59.2722Z" fill="#FEDC90"/>
<path d="M100.469 54.4284C100.469 64.9376 86.5282 73.4571 69.3316 73.4571C52.135 73.4571 38.1943 64.9376 38.1943 54.4284C38.1943 43.9191 52.135 35.3997 69.3316 35.3997C86.5282 35.3997 100.469 43.9191 100.469 54.4284Z" fill="#D1884F"/>
<path fill-rule="evenodd" clip-rule="evenodd" d="M28.8107 44.1437C28.8107 44.1595 28.8106 44.1753 28.8106 44.1911C28.8106 45.3393 28.9771 46.4638 29.296 47.5561H28.8103V49.0348C28.8103 49.6876 28.8641 50.3326 28.9691 50.9685C30.5546 60.5695 43.819 68.0635 59.9475 68.0635C76.0761 68.0635 89.3405 60.5695 90.926 50.9685C91.031 50.3326 91.0848 49.6876 91.0848 49.0348V47.5561H90.5998C90.91 46.4936 91.076 45.4007 91.0848 44.285C91.085 44.2537 91.0852 44.2224 91.0852 44.1911C91.0852 44.1753 91.0851 44.1595 91.0851 44.1437C91.0432 33.6562 77.1186 25.1624 59.9479 25.1624C42.7771 25.1624 28.8526 33.6562 28.8107 44.1437ZM25.3984 44.1437H25.3979V49.0348C25.3979 55.9281 29.9561 61.6162 36.1508 65.4019C42.4041 69.2234 50.826 71.4759 59.9475 71.4759C69.0691 71.4759 77.491 69.2234 83.7442 65.4019C89.9389 61.6162 94.4971 55.9281 94.4971 49.0348V44.2976C94.4974 44.2621 94.4975 44.2266 94.4975 44.1911C94.4975 37.2979 89.9393 31.6098 83.7446 27.824C77.4914 24.0025 69.0695 21.75 59.9479 21.75C50.8263 21.75 42.4044 24.0025 36.1512 27.824C29.9707 31.6011 25.4193 37.2718 25.3984 44.1437Z" fill="#633001"/>
<path d="M91.0851 49.0349C91.0851 59.5442 77.1444 68.0636 59.9478 68.0636C42.7512 68.0636 28.8105 59.5442 28.8105 49.0349V44.5703H91.0851V49.0349Z" fill="#FEDC90"/>
<path d="M91.0851 44.1911C91.0851 54.7003 77.1444 63.2198 59.9478 63.2198C42.7512 63.2198 28.8105 54.7003 28.8105 44.1911C28.8105 33.6818 42.7512 25.1624 59.9478 25.1624C77.1444 25.1624 91.0851 33.6818 91.0851 44.1911Z" fill="#D1884F"/>
<path fill-rule="evenodd" clip-rule="evenodd" d="M36.1757 45.375C36.1757 48.8836 38.7252 52.0261 42.7473 54.1404L39.9606 58.9672L39.9612 58.9675H39.9606V71.1833C39.9606 72.7987 41.2701 74.1082 42.8855 74.1082C44.5008 74.1082 45.8103 72.7987 45.8103 71.1833V61.4682L48.8084 56.2752C50.7255 56.6818 52.7833 56.9026 54.925 56.9026C65.28 56.9026 73.6743 51.7415 73.6743 45.375C73.6743 39.0085 65.28 33.8474 54.925 33.8474C44.5701 33.8474 36.1757 39.0085 36.1757 45.375Z" fill="url(#paint1_linear)"/>
<path fill-rule="evenodd" clip-rule="evenodd" d="M42.7474 54.1404C42.3018 53.9062 41.8744 53.6594 41.4665 53.4008C38.1917 51.3254 36.1758 48.4949 36.1758 45.375C36.1758 39.0085 44.5701 33.8474 54.9251 33.8474C65.28 33.8474 73.6744 39.0085 73.6744 45.375C73.6744 51.7415 65.28 56.9026 54.9251 56.9026C52.7834 56.9026 50.7255 56.6818 48.8085 56.2752L45.8104 61.4682V71.1833C45.8104 72.7987 44.5009 74.1082 42.8855 74.1082C41.2702 74.1082 39.9607 72.7987 39.9607 71.1833V58.9675L42.7474 54.1404ZM36.9749 59.0189V71.1833C36.9749 74.4478 39.6212 77.0941 42.8855 77.0941C46.1499 77.0941 48.7961 74.4478 48.7961 71.1833V62.2683L50.3512 59.5748C51.8281 59.7807 53.3588 59.8884 54.9251 59.8884C60.5636 59.8884 65.8114 58.4893 69.7466 56.0698C73.6332 53.6802 76.6602 49.9832 76.6602 45.375C76.6602 40.7668 73.6332 37.0698 69.7466 34.6802C65.8114 32.2607 60.5636 30.8616 54.9251 30.8616C49.2865 30.8616 44.0388 32.2607 40.1035 34.6802C36.217 37.0698 33.19 40.7668 33.19 45.375C33.19 49.4193 35.5065 52.7498 38.7249 55.136L37.3955 57.4386C37.2688 57.6507 37.1676 57.88 37.0963 58.1219C37.009 58.417 36.9694 58.7195 36.9749 59.0189Z" fill="#633001"/>
<path d="M42.033 40.5181C42.033 43.8161 46.2343 46.4898 51.4169 46.4898C56.5995 46.4898 60.8008 43.8161 60.8008 40.5181C60.8008 37.22 56.5995 34.5464 51.4169 34.5464C46.2343 34.5464 42.033 37.22 42.033 40.5181Z" fill="#9E7200"/>
<path d="M42.0332 37.959H60.801V40.5183H42.0332V37.959Z" fill="#9E7200"/>
<path d="M42.033 37.959C42.033 41.2571 46.2343 43.9307 51.4169 43.9307C56.5995 43.9307 60.8008 41.2571 60.8008 37.959C60.8008 34.6609 56.5995 31.9873 51.4169 31.9873C46.2343 31.9873 42.033 34.6609 42.033 37.959Z" fill="#F0B90B"/>
<path d="M47.856 37.239L50.501 35.5558C51.0599 35.2001 51.7741 35.2001 52.333 35.5558L54.978 37.239C55.5047 37.5742 55.5047 38.3432 54.978 38.6785L52.333 40.3617C51.7741 40.7173 51.0599 40.7173 50.501 40.3617L47.856 38.6785C47.3292 38.3432 47.3292 37.5742 47.856 37.239Z" fill="#9E7200"/>
<path fill-rule="evenodd" clip-rule="evenodd" d="M43.1786 31.2173C45.4248 29.7879 48.3456 29.0015 51.417 29.0015C54.4885 29.0015 57.4092 29.7879 59.6554 31.2173C61.8662 32.6242 63.7867 34.935 63.7867 37.959V40.5183C63.7867 43.5423 61.8662 45.8531 59.6554 47.2599C57.4092 48.6894 54.4885 49.4758 51.417 49.4758C48.3456 49.4758 45.4248 48.6894 43.1786 47.2599C40.9678 45.8531 39.0474 43.5423 39.0474 40.5183V37.959C39.0474 34.935 40.9679 32.6242 43.1786 31.2173ZM51.417 31.9873C46.2345 31.9873 42.0331 34.6609 42.0331 37.959V40.5183C42.0331 43.8164 46.2345 46.49 51.417 46.49C56.5996 46.49 60.8009 43.8164 60.8009 40.5183V37.959C60.8009 34.6609 56.5996 31.9873 51.417 31.9873Z" fill="#633001"/>
<defs>
<linearGradient id="paint0_linear" x1="64" y1="0" x2="64" y2="128" gradientUnits="userSpaceOnUse">
<stop stop-color="#54DADE"/>
<stop offset="0.762157" stop-color="#24C7D6"/>
</linearGradient>
<linearGradient id="paint1_linear" x1="55.1278" y1="34.2333" x2="55.1278" y2="73.8058" gradientUnits="userSpaceOnUse">
<stop stop-color="#9F4A08"/>
<stop offset="0.370494" stop-color="#7D3900"/>
<stop offset="1" stop-color="#8D4104"/>
</linearGradient>
</defs>
</svg>
