<svg width="90" height="90" viewBox="0 0 90 90" fill="none" xmlns="http://www.w3.org/2000/svg">
<rect width="90" height="90" fill="url(#paint0_linear)"/>
<path fill-rule="evenodd" clip-rule="evenodd" d="M15.7703 49.9442C15.7626 50.1122 15.7587 50.2809 15.7587 50.4501C15.7587 51.0897 15.8144 51.7214 15.923 52.3435H15.7587V53.3228C15.7587 53.8008 15.7898 54.2744 15.8508 54.7428C17.0423 63.8844 29.6377 71.0772 45 71.0772C60.3623 71.0772 72.9577 63.8844 74.1492 54.7428C74.2102 54.2744 74.2413 53.8008 74.2413 53.3228V52.3435H74.077C74.1856 51.7214 74.2413 51.0897 74.2413 50.4501C74.2413 50.2809 74.2374 50.1122 74.2297 49.9442C73.7886 40.3727 60.8709 32.6957 45 32.6957C29.1291 32.6957 16.2114 40.3727 15.7703 49.9442ZM13.3688 49.9442C13.5863 44.1042 17.5547 39.1986 23.0781 35.845C28.8037 32.3686 36.5601 30.2964 45 30.2964C53.4399 30.2964 61.1964 32.3686 66.9219 35.845C72.4453 39.1986 76.4137 44.1042 76.6312 49.9442H76.6406V53.3228C76.6406 59.3853 72.6041 64.4779 66.9219 67.9279C61.1964 71.4043 53.4399 73.4765 45 73.4765C36.5601 73.4765 28.8037 71.4043 23.0781 67.9279C17.3959 64.4779 13.3594 59.3853 13.3594 53.3228V49.9442H13.3688Z" fill="#606063"/>
<path d="M74.2415 53.3233C74.2415 63.1287 61.1497 71.0776 45.0001 71.0776C28.8506 71.0776 15.7588 63.1287 15.7588 53.3233V50.5127H74.2415V53.3233Z" fill="#BEBEBE"/>
<path d="M74.2415 50.4502C74.2415 60.2557 61.1497 68.2046 45.0001 68.2046C28.8506 68.2046 15.7588 60.2557 15.7588 50.4502C15.7588 40.6447 28.8506 32.6958 45.0001 32.6958C61.1497 32.6958 74.2415 40.6447 74.2415 50.4502Z" fill="#FAF9FA"/>
<path fill-rule="evenodd" clip-rule="evenodd" d="M20.2575 45.4345C20.2575 45.4456 20.2575 45.4567 20.2575 45.4679C20.2575 46.2752 20.3745 47.0659 20.5987 47.8338H20.2572V48.8736C20.2572 49.3326 20.295 49.7861 20.3688 50.2332C21.4837 56.9839 30.8102 62.2532 42.1506 62.2532C53.491 62.2532 62.8175 56.9839 63.9323 50.2332C64.0062 49.7861 64.044 49.3326 64.044 48.8736V47.8338H63.703C63.9211 47.0868 64.0378 46.3183 64.044 45.5339C64.0441 45.5119 64.0442 45.4899 64.0442 45.4679C64.0442 45.4567 64.0442 45.4456 64.0442 45.4345C64.0147 38.0605 54.224 32.0883 42.1508 32.0883C30.0777 32.0883 20.287 38.0605 20.2575 45.4345ZM17.8582 45.4345H17.8579V48.8736C17.8579 53.7204 21.0629 57.7199 25.4185 60.3817C29.8153 63.0687 35.737 64.6525 42.1506 64.6525C48.5642 64.6525 54.4858 63.0687 58.8827 60.3817C63.2383 57.7199 66.4433 53.7204 66.4433 48.8736V45.5428C66.4434 45.5178 66.4435 45.4928 66.4435 45.4679C66.4435 40.621 63.2386 36.6216 58.8829 33.9598C54.4861 31.2728 48.5644 29.689 42.1508 29.689C35.7372 29.689 29.8156 31.2728 25.4188 33.9598C21.0731 36.6155 17.8729 40.6027 17.8582 45.4345Z" fill="#633001"/>
<path d="M64.0441 48.8738C64.0441 56.2631 54.2421 62.2534 42.1507 62.2534C30.0593 62.2534 20.2573 56.2631 20.2573 48.8738V45.7346H64.0441V48.8738Z" fill="#FEDC90"/>
<path d="M64.0441 45.4679C64.0441 52.8573 54.2421 58.8475 42.1507 58.8475C30.0593 58.8475 20.2573 52.8573 20.2573 45.4679C20.2573 38.0786 30.0593 32.0884 42.1507 32.0884C54.2421 32.0884 64.0441 38.0786 64.0441 45.4679Z" fill="#D1884F"/>
<path fill-rule="evenodd" clip-rule="evenodd" d="M26.8557 38.2365C26.8556 38.2476 26.8556 38.2587 26.8556 38.2699C26.8556 39.0772 26.9726 39.8679 27.1968 40.6359H26.8553V41.6756C26.8553 42.1346 26.8932 42.5881 26.967 43.0352C28.0818 49.7859 37.4083 55.0552 48.7487 55.0552C60.0891 55.0552 69.4157 49.7859 70.5305 43.0352C70.6043 42.5881 70.6421 42.1346 70.6421 41.6756V40.6359H70.3011C70.5192 39.8888 70.6359 39.1203 70.6421 38.3359C70.6423 38.3139 70.6424 38.2919 70.6424 38.2699C70.6424 38.2587 70.6423 38.2476 70.6423 38.2365C70.6129 30.8625 60.8222 24.8903 48.749 24.8903C36.6758 24.8903 26.8851 30.8625 26.8557 38.2365ZM24.4564 38.2365H24.4561V41.6756C24.4561 46.5224 27.661 50.5219 32.0167 53.1837C36.4135 55.8707 42.3351 57.4545 48.7487 57.4545C55.1623 57.4545 61.084 55.8707 65.4808 53.1837C69.8364 50.5219 73.0414 46.5224 73.0414 41.6756V38.3448C73.0416 38.3198 73.0417 38.2948 73.0417 38.2699C73.0417 33.4231 69.8367 29.4236 65.4811 26.7618C61.0842 24.0748 55.1626 22.491 48.749 22.491C42.3354 22.491 36.4137 24.0748 32.0169 26.7618C27.6713 29.4175 24.471 33.4047 24.4564 38.2365Z" fill="#633001"/>
<path d="M70.6422 41.6758C70.6422 49.0651 60.8402 55.0554 48.7488 55.0554C36.6575 55.0554 26.8555 49.0651 26.8555 41.6758V38.5366H70.6422V41.6758Z" fill="#FEDC90"/>
<path d="M70.6422 38.2699C70.6422 45.6593 60.8402 51.6495 48.7488 51.6495C36.6575 51.6495 26.8555 45.6593 26.8555 38.2699C26.8555 30.8806 36.6575 24.8904 48.7488 24.8904C60.8402 24.8904 70.6422 30.8806 70.6422 38.2699Z" fill="#D1884F"/>
<path fill-rule="evenodd" clip-rule="evenodd" d="M20.2575 31.0385C20.2575 31.0496 20.2575 31.0607 20.2575 31.0719C20.2575 31.8792 20.3745 32.6699 20.5987 33.4379H20.2572V34.4776C20.2572 34.9366 20.295 35.3901 20.3688 35.8372C21.4837 42.5879 30.8102 47.8572 42.1506 47.8572C53.491 47.8572 62.8175 42.5879 63.9323 35.8372C64.0062 35.3901 64.044 34.9366 64.044 34.4776V33.4379H63.703C63.9211 32.6908 64.0378 31.9223 64.044 31.1379C64.0441 31.1159 64.0442 31.0939 64.0442 31.0719C64.0442 31.0607 64.0442 31.0496 64.0442 31.0385C64.0147 23.6645 54.224 17.6923 42.1508 17.6923C30.0777 17.6923 20.287 23.6645 20.2575 31.0385ZM17.8582 31.0385H17.8579V34.4776C17.8579 39.3244 21.0629 43.3239 25.4185 45.9857C29.8153 48.6727 35.737 50.2565 42.1506 50.2565C48.5642 50.2565 54.4858 48.6727 58.8827 45.9857C63.2383 43.3239 66.4433 39.3244 66.4433 34.4776V31.1468C66.4434 31.1218 66.4435 31.0968 66.4435 31.0719C66.4435 26.2251 63.2386 22.2256 58.8829 19.5638C54.4861 16.8768 48.5644 15.293 42.1508 15.293C35.7372 15.293 29.8156 16.8768 25.4188 19.5638C21.0731 22.2195 17.8729 26.2067 17.8582 31.0385Z" fill="#633001"/>
<path d="M64.0441 34.4778C64.0441 41.8671 54.2421 47.8574 42.1507 47.8574C30.0593 47.8574 20.2573 41.8671 20.2573 34.4778V31.3386H64.0441V34.4778Z" fill="#FEDC90"/>
<path d="M64.0441 31.0719C64.0441 38.4613 54.2421 44.4515 42.1507 44.4515C30.0593 44.4515 20.2573 38.4613 20.2573 31.0719C20.2573 23.6826 30.0593 17.6924 42.1507 17.6924C54.2421 17.6924 64.0441 23.6826 64.0441 31.0719Z" fill="#D1884F"/>
<path fill-rule="evenodd" clip-rule="evenodd" d="M25.4361 31.9044C25.4361 34.3714 27.2287 36.5809 30.0567 38.0676L28.0973 41.4614L28.0977 41.4617H28.0973V50.0509C28.0973 51.1867 29.018 52.1075 30.1538 52.1075C31.2896 52.1075 32.2104 51.1867 32.2104 50.0509V43.22L34.3184 39.5686C35.6663 39.8545 37.1133 40.0097 38.6192 40.0097C45.9 40.0097 51.8022 36.3808 51.8022 31.9044C51.8022 27.428 45.9 23.7991 38.6192 23.7991C31.3383 23.7991 25.4361 27.428 25.4361 31.9044Z" fill="url(#paint1_linear)"/>
<path fill-rule="evenodd" clip-rule="evenodd" d="M30.0569 38.0676C29.7437 37.9029 29.4431 37.7294 29.1563 37.5476C26.8538 36.0883 25.4363 34.0982 25.4363 31.9045C25.4363 27.428 31.3386 23.7991 38.6194 23.7991C45.9002 23.7991 51.8025 27.428 51.8025 31.9045C51.8025 36.3809 45.9002 40.0098 38.6194 40.0098C37.1135 40.0098 35.6666 39.8545 34.3187 39.5687L32.2106 43.22V50.0509C32.2106 51.1868 31.2899 52.1075 30.1541 52.1075C29.0183 52.1075 28.0975 51.1868 28.0975 50.0509V41.4617L30.0569 38.0676ZM25.9981 41.4978V50.0509C25.9981 52.3462 27.8588 54.2069 30.1541 54.2069C32.4493 54.2069 34.31 52.3462 34.31 50.0509V43.7826L35.4034 41.8887C36.4418 42.0334 37.5181 42.1092 38.6194 42.1092C42.584 42.1092 46.2738 41.1254 49.0408 39.4242C51.7735 37.7441 53.9019 35.1446 53.9019 31.9045C53.9019 28.6643 51.7735 26.0648 49.0408 24.3847C46.2738 22.6835 42.584 21.6997 38.6194 21.6997C34.6548 21.6997 30.965 22.6835 28.198 24.3847C25.4652 26.0648 23.3369 28.6643 23.3369 31.9045C23.3369 34.7481 24.9657 37.0898 27.2286 38.7677L26.2939 40.3867C26.2048 40.5358 26.1337 40.697 26.0835 40.8672C26.0221 41.0746 25.9943 41.2873 25.9981 41.4978Z" fill="#633001"/>
<path d="M29.5544 28.4894C29.5544 30.8083 32.5084 32.6882 36.1524 32.6882C39.7964 32.6882 42.7505 30.8083 42.7505 28.4894C42.7505 26.1704 39.7964 24.2905 36.1524 24.2905C32.5084 24.2905 29.5544 26.1704 29.5544 28.4894Z" fill="#9E7200"/>
<path d="M29.5547 26.6899H42.7508V28.4894H29.5547V26.6899Z" fill="#9E7200"/>
<path d="M29.5544 26.6898C29.5544 29.0088 32.5084 30.8887 36.1524 30.8887C39.7964 30.8887 42.7505 29.0088 42.7505 26.6898C42.7505 24.3709 39.7964 22.491 36.1524 22.491C32.5084 22.491 29.5544 24.3709 29.5544 26.6898Z" fill="#F0B90B"/>
<path d="M33.6489 26.1838L35.5086 25.0003C35.9016 24.7502 36.4038 24.7502 36.7968 25.0003L38.6565 26.1838C39.0269 26.4195 39.0269 26.9602 38.6565 27.1959L36.7968 28.3794C36.4038 28.6295 35.9016 28.6295 35.5086 28.3794L33.6489 27.1959C33.2785 26.9602 33.2785 26.4195 33.6489 26.1838Z" fill="#9E7200"/>
<path fill-rule="evenodd" clip-rule="evenodd" d="M30.3599 21.9496C31.9392 20.9446 33.9929 20.3916 36.1525 20.3916C38.3121 20.3916 40.3658 20.9446 41.9451 21.9496C43.4996 22.9389 44.8499 24.5636 44.8499 26.6899V28.4894C44.8499 30.6156 43.4996 32.2404 41.9451 33.2296C40.3658 34.2347 38.3121 34.7876 36.1525 34.7876C33.9929 34.7876 31.9392 34.2347 30.3599 33.2296C28.8054 32.2404 27.4551 30.6156 27.4551 28.4894V26.6899C27.4551 24.5636 28.8054 22.9389 30.3599 21.9496ZM36.1525 22.491C32.5085 22.491 29.5545 24.3709 29.5545 26.6899V28.4894C29.5545 30.8083 32.5085 32.6882 36.1525 32.6882C39.7965 32.6882 42.7505 30.8083 42.7505 28.4894V26.6899C42.7505 24.3709 39.7965 22.491 36.1525 22.491Z" fill="#633001"/>
<defs>
<linearGradient id="paint0_linear" x1="45" y1="0" x2="45" y2="90" gradientUnits="userSpaceOnUse">
<stop stop-color="#54DADE"/>
<stop offset="0.762157" stop-color="#24C7D6"/>
</linearGradient>
<linearGradient id="paint1_linear" x1="38.7618" y1="24.0704" x2="38.7618" y2="51.8948" gradientUnits="userSpaceOnUse">
<stop stop-color="#9F4A08"/>
<stop offset="0.370494" stop-color="#7D3900"/>
<stop offset="1" stop-color="#8D4104"/>
</linearGradient>
</defs>
</svg>
