<svg width="512" height="512" viewBox="0 0 512 512" fill="none" xmlns="http://www.w3.org/2000/svg">
<rect width="512" height="512" fill="url(#paint0_linear)"/>
<path fill-rule="evenodd" clip-rule="evenodd" d="M89.7155 284.127C89.6715 285.083 89.6493 286.043 89.6493 287.005C89.6493 290.644 89.9662 294.238 90.5841 297.777H89.6493V303.348C89.6493 306.067 89.8263 308.761 90.1736 311.426C96.952 363.431 168.606 404.35 256 404.35C343.394 404.35 415.048 363.431 421.826 311.426C422.174 308.761 422.351 306.067 422.351 303.348V297.777H421.416C422.034 294.238 422.351 290.644 422.351 287.005C422.351 286.043 422.329 285.083 422.284 284.127C419.775 229.676 346.288 186.003 256 186.003C165.712 186.003 92.225 229.676 89.7155 284.127ZM76.0535 284.127C77.2907 250.904 99.8667 222.997 131.289 203.918C163.861 184.141 207.986 172.353 256 172.353C304.014 172.353 348.139 184.141 380.712 203.918C412.133 222.997 434.709 250.904 435.947 284.127H436V303.348C436 337.837 413.037 366.808 380.712 386.435C348.139 406.212 304.014 418 256 418C207.986 418 163.861 406.212 131.289 386.435C98.9634 366.808 76 337.837 76 303.348V284.127H76.0535Z" fill="#606063"/>
<path d="M422.351 303.35C422.351 359.133 347.873 404.353 256 404.353C164.127 404.353 89.6494 359.133 89.6494 303.35V287.361H422.351V303.35Z" fill="#BEBEBE"/>
<path d="M422.351 287.005C422.351 342.788 347.873 388.008 256 388.008C164.127 388.008 89.6494 342.788 89.6494 287.005C89.6494 231.223 164.127 186.003 256 186.003C347.873 186.003 422.351 231.223 422.351 287.005Z" fill="#FAF9FA"/>
<path fill-rule="evenodd" clip-rule="evenodd" d="M115.243 258.472C115.243 258.535 115.243 258.599 115.243 258.662C115.243 263.255 115.909 267.753 117.184 272.122H115.242V278.037C115.242 280.648 115.457 283.228 115.877 285.771C122.219 324.176 175.276 354.152 239.791 354.152C304.305 354.152 357.362 324.176 363.704 285.771C364.125 283.228 364.34 280.648 364.34 278.037V272.122H362.4C363.641 267.872 364.304 263.5 364.34 259.037C364.341 258.912 364.341 258.787 364.341 258.662C364.341 258.599 364.341 258.535 364.341 258.472C364.173 216.522 308.475 182.547 239.792 182.547C171.109 182.547 115.411 216.522 115.243 258.472ZM101.594 258.472H101.592V278.037C101.592 305.61 119.825 328.362 144.604 343.505C169.617 358.791 203.304 367.801 239.791 367.801C276.277 367.801 309.964 358.791 334.977 343.505C359.756 328.362 377.989 305.61 377.989 278.037V259.088C377.99 258.946 377.99 258.804 377.99 258.662C377.99 231.089 359.758 208.337 334.979 193.194C309.966 177.908 276.278 168.897 239.792 168.897C203.306 168.897 169.618 177.908 144.605 193.194C119.883 208.302 101.677 230.985 101.594 258.472Z" fill="#633001"/>
<path d="M364.34 278.037C364.34 320.074 308.577 354.152 239.791 354.152C171.004 354.152 115.242 320.074 115.242 278.037V260.179H364.34V278.037Z" fill="#FEDC90"/>
<path d="M364.34 258.662C364.34 300.699 308.577 334.777 239.791 334.777C171.004 334.777 115.242 300.699 115.242 258.662C115.242 216.625 171.004 182.547 239.791 182.547C308.577 182.547 364.34 216.625 364.34 258.662Z" fill="#D1884F"/>
<path fill-rule="evenodd" clip-rule="evenodd" d="M152.779 217.523C152.779 217.587 152.779 217.65 152.779 217.713C152.779 222.306 153.444 226.804 154.72 231.173H152.777V237.088C152.777 239.699 152.992 242.279 153.412 244.823C159.754 283.227 212.812 313.203 277.326 313.203C341.84 313.203 394.898 283.227 401.24 244.823C401.66 242.279 401.875 239.699 401.875 237.088V231.173H399.935C401.176 226.923 401.84 222.551 401.875 218.089C401.876 217.964 401.877 217.838 401.877 217.713C401.877 217.65 401.877 217.587 401.876 217.523C401.709 175.574 346.011 141.598 277.328 141.598C208.645 141.598 152.947 175.574 152.779 217.523ZM139.13 217.523H139.128V237.088C139.128 264.661 157.361 287.413 182.139 302.556C207.152 317.842 240.84 326.852 277.326 326.852C313.812 326.852 347.5 317.842 372.513 302.556C397.292 287.413 415.525 264.661 415.525 237.088V218.139C415.526 217.997 415.526 217.855 415.526 217.713C415.526 190.14 397.293 167.388 372.515 152.245C347.502 136.959 313.814 127.949 277.328 127.949C240.842 127.949 207.154 136.959 182.141 152.245C157.419 167.353 139.213 190.036 139.13 217.523Z" fill="#633001"/>
<path d="M401.875 237.089C401.875 279.126 346.113 313.203 277.326 313.203C208.54 313.203 152.777 279.126 152.777 237.089V219.23H401.875V237.089Z" fill="#FEDC90"/>
<path d="M401.875 217.713C401.875 259.75 346.113 293.828 277.326 293.828C208.54 293.828 152.777 259.75 152.777 217.713C152.777 175.676 208.54 141.598 277.326 141.598C346.113 141.598 401.875 175.676 401.875 217.713Z" fill="#D1884F"/>
<path fill-rule="evenodd" clip-rule="evenodd" d="M115.243 176.575C115.243 176.638 115.243 176.701 115.243 176.764C115.243 181.357 115.909 185.855 117.184 190.224H115.242V196.139C115.242 198.75 115.457 201.331 115.877 203.874C122.219 242.278 175.276 272.254 239.791 272.254C304.305 272.254 357.362 242.278 363.704 203.874C364.125 201.331 364.34 198.75 364.34 196.139V190.224H362.4C363.641 185.974 364.304 181.603 364.34 177.14C364.341 177.015 364.341 176.89 364.341 176.764C364.341 176.701 364.341 176.638 364.341 176.575C364.173 134.625 308.475 100.65 239.792 100.65C171.109 100.65 115.411 134.625 115.243 176.575ZM101.594 176.575H101.592V196.139C101.592 223.712 119.825 246.465 144.604 261.608C169.617 276.894 203.304 285.904 239.791 285.904C276.277 285.904 309.964 276.894 334.977 261.608C359.756 246.465 377.989 223.712 377.989 196.139V177.191C377.99 177.049 377.99 176.907 377.99 176.764C377.99 149.191 359.758 126.439 334.979 111.296C309.966 96.0101 276.278 87 239.792 87C203.306 87 169.618 96.0101 144.605 111.296C119.883 126.404 101.677 149.087 101.594 176.575Z" fill="#633001"/>
<path d="M364.34 196.14C364.34 238.177 308.577 272.255 239.791 272.255C171.004 272.255 115.242 238.177 115.242 196.14V178.281H364.34V196.14Z" fill="#FEDC90"/>
<path d="M364.34 176.765C364.34 218.802 308.577 252.879 239.791 252.879C171.004 252.879 115.242 218.802 115.242 176.765C115.242 134.727 171.004 100.65 239.791 100.65C308.577 100.65 364.34 134.727 364.34 176.765Z" fill="#D1884F"/>
<path fill-rule="evenodd" clip-rule="evenodd" d="M144.703 181.5C144.703 195.535 154.901 208.105 170.99 216.562L159.843 235.869L159.845 235.87H159.843V284.734C159.843 291.195 165.081 296.433 171.542 296.433C178.004 296.433 183.242 291.195 183.242 284.734V245.873L195.234 225.101C202.902 226.727 211.134 227.611 219.701 227.611C261.12 227.611 294.698 206.966 294.698 181.5C294.698 156.034 261.12 135.39 219.701 135.39C178.281 135.39 144.703 156.034 144.703 181.5Z" fill="url(#paint1_linear)"/>
<path fill-rule="evenodd" clip-rule="evenodd" d="M170.99 216.562C169.207 215.625 167.498 214.638 165.866 213.604C152.767 205.302 144.703 193.98 144.703 181.5C144.703 156.034 178.281 135.39 219.7 135.39C261.12 135.39 294.697 156.034 294.697 181.5C294.697 206.966 261.12 227.611 219.7 227.611C211.133 227.611 202.902 226.727 195.234 225.101L183.241 245.873V284.734C183.241 291.195 178.003 296.433 171.542 296.433C165.081 296.433 159.843 291.195 159.843 284.734V235.87L170.99 216.562ZM147.9 236.076V284.734C147.9 297.791 158.485 308.377 171.542 308.377C184.599 308.377 195.185 297.791 195.185 284.734V249.073L201.405 238.3C207.313 239.123 213.435 239.554 219.7 239.554C242.255 239.554 263.246 233.957 278.986 224.279C294.533 214.721 306.641 199.933 306.641 181.5C306.641 163.067 294.533 148.279 278.986 138.721C263.246 129.043 242.255 123.447 219.7 123.447C197.146 123.447 176.155 129.043 160.414 138.721C144.868 148.279 132.76 163.067 132.76 181.5C132.76 197.678 142.026 210.999 154.899 220.544L149.582 229.755C149.075 230.603 148.671 231.52 148.385 232.488C148.036 233.668 147.878 234.878 147.9 236.076Z" fill="#633001"/>
<path d="M168.133 162.073C168.133 175.265 184.938 185.959 205.668 185.959C226.398 185.959 243.204 175.265 243.204 162.073C243.204 148.88 226.398 138.186 205.668 138.186C184.938 138.186 168.133 148.88 168.133 162.073Z" fill="#9E7200"/>
<path d="M168.133 151.835H243.204V162.073H168.133V151.835Z" fill="#9E7200"/>
<path d="M168.133 151.835C168.133 165.028 184.938 175.722 205.668 175.722C226.398 175.722 243.204 165.028 243.204 151.835C243.204 138.643 226.398 127.949 205.668 127.949C184.938 127.949 168.133 138.643 168.133 151.835Z" fill="#F0B90B"/>
<path d="M191.425 148.957L202.004 142.224C204.24 140.801 207.097 140.801 209.332 142.224L219.912 148.957C222.019 150.297 222.019 153.373 219.912 154.714L209.332 161.447C207.097 162.87 204.24 162.87 202.004 161.447L191.425 154.714C189.317 153.373 189.317 150.297 191.425 148.957Z" fill="#9E7200"/>
<path fill-rule="evenodd" clip-rule="evenodd" d="M172.715 124.869C181.699 119.151 193.382 116.005 205.668 116.005C217.954 116.005 229.637 119.151 238.622 124.869C247.465 130.496 255.147 139.74 255.147 151.835V162.073C255.147 174.169 247.465 183.412 238.622 189.039C229.637 194.757 217.954 197.903 205.668 197.903C193.382 197.903 181.699 194.757 172.715 189.039C163.871 183.412 156.189 174.169 156.189 162.073V151.835C156.189 139.74 163.871 130.496 172.715 124.869ZM205.668 127.949C184.938 127.949 168.133 138.643 168.133 151.835V162.073C168.133 175.265 184.938 185.959 205.668 185.959C226.398 185.959 243.204 175.265 243.204 162.073V151.835C243.204 138.643 226.398 127.949 205.668 127.949Z" fill="#633001"/>
<defs>
<linearGradient id="paint0_linear" x1="256" y1="0" x2="256" y2="512" gradientUnits="userSpaceOnUse">
<stop stop-color="#54DADE"/>
<stop offset="0.762157" stop-color="#24C7D6"/>
</linearGradient>
<linearGradient id="paint1_linear" x1="220.512" y1="136.933" x2="220.512" y2="295.224" gradientUnits="userSpaceOnUse">
<stop stop-color="#9F4A08"/>
<stop offset="0.370494" stop-color="#7D3900"/>
<stop offset="1" stop-color="#8D4104"/>
</linearGradient>
</defs>
</svg>
