<?xml version="1.0" ?><!DOCTYPE svg  PUBLIC '-//W3C//DTD SVG 1.1//EN'  'http://www.w3.org/Graphics/SVG/1.1/DTD/svg11.dtd'><svg height="100%" style="fill-rule:evenodd;clip-rule:evenodd;stroke-linejoin:round;stroke-miterlimit:2;" version="1.1" viewBox="0 0 512 512" width="100%" xml:space="preserve" xmlns="http://www.w3.org/2000/svg" xmlns:serif="http://www.serif.com/" xmlns:xlink="http://www.w3.org/1999/xlink"><g><path d="M512,62.747C512,28.116 483.884,0 449.253,0L62.747,0C28.116,0 0,28.116 0,62.747L0,449.253C0,483.884 28.116,512 62.747,512L449.253,512C483.884,512 512,483.884 512,449.253L512,62.747ZM283.546,256.002C283.546,323.438 229.249,378.105 162.275,378.105C95.301,378.105 41,323.438 41,256.002C41,188.566 95.296,133.895 162.275,133.895C229.253,133.895 283.546,188.566 283.546,256.002ZM416.584,256.002C416.584,319.478 389.436,370.957 355.947,370.957C322.457,370.957 295.309,319.478 295.309,256.002C295.309,192.526 322.453,141.048 355.942,141.048C389.432,141.048 416.58,192.509 416.58,256.002L416.584,256.002ZM471,256.002C471,312.861 461.453,358.983 449.674,358.983C437.894,358.983 428.351,312.874 428.351,256.002C428.351,199.13 437.898,153.021 449.674,153.021C461.449,153.021 471,199.126 471,256.002Z"/></g></svg>