<svg width="198" height="198" viewBox="0 0 198 198" fill="none" xmlns="http://www.w3.org/2000/svg">
<path fill-rule="evenodd" clip-rule="evenodd" d="M36.1473 30.9487C33.1431 14.8619 45.4866 0 61.8515 0C76.2929 0 88 11.7071 88 26.1485V58.3857C91.6123 58.1308 95.2828 58 99 58C102.571 58 106.099 58.1207 109.574 58.3562V26.1485C109.574 11.7071 121.281 0 135.723 0C152.088 0 164.431 14.8619 161.427 30.9487L154.351 68.8417C178.636 79.4445 197 97.8599 197 121V135C197 154.029 184.411 169.962 166.811 180.717C149.074 191.556 125.08 198 99 198C72.9205 198 48.9257 191.556 31.1888 180.717C13.5892 169.962 1 154.029 1 135V121C1 97.9824 19.175 79.6378 43.2558 69.0139L36.1473 30.9487ZM145.283 73.8201L153.563 29.4801C155.648 18.315 147.081 8 135.723 8C125.7 8 117.574 16.1254 117.574 26.1485V67.1726C114.948 66.8359 112.279 66.5691 109.574 66.3756C106.106 66.1275 102.577 66 99 66C95.2762 66 91.6052 66.1382 88 66.4067C85.2944 66.6082 82.6259 66.883 80 67.2279V26.1485C80 16.1254 71.8746 8 61.8515 8C50.4933 8 41.9263 18.315 44.0113 29.4801L52.3191 73.9672C26.3477 83.6145 9 101.069 9 121V135C9 165.376 49.2944 190 99 190C148.706 190 189 165.376 189 135V121C189 100.967 171.475 83.4364 145.283 73.8201Z" fill="#633001"/>
<path d="M189 135C189 165.376 148.706 190 99 190C49.2944 190 9 165.376 9 135V121H189V135Z" fill="#FEDC90"/>
<path fill-rule="evenodd" clip-rule="evenodd" d="M44.0113 29.4801C41.9263 18.315 50.4933 8 61.8515 8C71.8746 8 80 16.1254 80 26.1485V67.2279C86.125 66.4235 92.4816 66 99 66C105.367 66 111.581 66.4041 117.574 67.1726V26.1485C117.574 16.1254 125.7 8 135.723 8C147.081 8 155.648 18.315 153.563 29.4801L145.283 73.8201C171.475 83.4364 189 100.967 189 121C189 151.376 148.706 176 99 176C49.2944 176 9 151.376 9 121C9 101.069 26.3477 83.6145 52.3191 73.9672L44.0113 29.4801Z" fill="#D1884F"/>
<path d="M74 117C74 125.284 69.5228 132 64 132C58.4772 132 54 125.284 54 117C54 108.716 58.4772 102 64 102C69.5228 102 74 108.716 74 117Z" fill="#633001"/>
<path d="M143 117C143 125.284 138.523 132 133 132C127.477 132 123 125.284 123 117C123 108.716 127.477 102 133 102C138.523 102 143 108.716 143 117Z" fill="#633001"/>
</svg>
