<svg width="1281" height="198" viewBox="0 0 1281 198" fill="none" xmlns="http://www.w3.org/2000/svg">
<path d="M247.013 153.096C244.034 153.096 241.928 152.479 240.695 151.247C239.565 150.014 239 148.062 239 145.391V56.1703C239 53.4993 239.616 51.5474 240.849 50.3147C242.082 48.9792 244.136 48.3114 247.013 48.3114H284.766C299.148 48.3114 309.729 51.342 316.51 57.403C323.29 63.4641 326.68 72.5043 326.68 84.5237C326.68 96.4403 323.29 105.429 316.51 111.49C309.832 117.449 299.251 120.428 284.766 120.428H270.127V145.391C270.127 148.062 269.511 150.014 268.278 151.247C267.045 152.479 264.939 153.096 261.96 153.096H247.013ZM282.301 98.084C286.513 98.084 289.749 96.954 292.009 94.6939C294.371 92.4339 295.553 89.0438 295.553 84.5237C295.553 79.9008 294.371 76.4594 292.009 74.1993C289.749 71.9393 286.513 70.8092 282.301 70.8092H270.127V98.084H282.301Z" fill="white"/>
<path d="M363.071 155.407C353.415 155.407 345.659 152.325 339.803 146.162C334.05 139.895 331.174 131.112 331.174 119.811C331.174 111.182 333.126 103.631 337.029 97.1594C341.036 90.6875 346.635 85.7051 353.826 82.2123C361.12 78.6167 369.492 76.8189 378.943 76.8189C386.751 76.8189 393.634 77.6921 399.592 79.4385C405.653 81.0822 411.2 83.4964 416.234 86.681V148.319C416.234 150.271 415.875 151.555 415.155 152.171C414.436 152.788 412.998 153.096 410.841 153.096H395.123C393.993 153.096 393.12 152.942 392.504 152.633C391.887 152.223 391.374 151.606 390.963 150.784L388.959 146.162C385.98 149.346 382.385 151.658 378.173 153.096C374.064 154.637 369.03 155.407 363.071 155.407ZM374.629 134.45C378.635 134.45 381.768 133.474 384.028 131.523C386.288 129.571 387.418 126.797 387.418 123.201V99.1627C385.467 98.2381 383.001 97.7758 380.022 97.7758C374.577 97.7758 370.211 99.6763 366.924 103.477C363.739 107.278 362.147 112.62 362.147 119.503C362.147 129.468 366.307 134.45 374.629 134.45Z" fill="white"/>
<path d="M437.679 153.096C434.699 153.096 432.593 152.479 431.361 151.247C430.128 150.014 429.512 148.062 429.512 145.391V83.9073C429.512 82.0582 429.82 80.8254 430.436 80.209C431.155 79.4899 432.593 79.1304 434.751 79.1304H450.623C451.855 79.1304 452.78 79.3358 453.396 79.7467C454.115 80.0549 454.526 80.6713 454.629 81.5959L455.399 86.2187C458.276 83.3423 462.026 81.0822 466.648 79.4385C471.374 77.6921 476.613 76.8189 482.366 76.8189C490.687 76.8189 497.416 79.1817 502.552 83.9073C507.689 88.5301 510.257 95.413 510.257 104.556V145.391C510.257 148.062 509.641 150.014 508.408 151.247C507.278 152.479 505.223 153.096 502.244 153.096H487.297C484.318 153.096 482.161 152.479 480.825 151.247C479.592 150.014 478.976 148.062 478.976 145.391V106.559C478.976 103.477 478.308 101.269 476.973 99.9331C475.637 98.5976 473.531 97.9299 470.655 97.9299C467.573 97.9299 465.107 98.7517 463.258 100.395C461.512 102.039 460.639 104.299 460.639 107.176V145.391C460.639 148.062 460.022 150.014 458.79 151.247C457.66 152.479 455.605 153.096 452.626 153.096H437.679Z" fill="white"/>
<path d="M564.725 155.407C550.343 155.407 539.248 152.068 531.44 145.391C523.633 138.714 519.729 129.006 519.729 116.267C519.729 108.46 521.527 101.577 525.122 95.6185C528.718 89.6602 533.906 85.0373 540.686 81.75C547.569 78.4626 555.685 76.8189 565.033 76.8189C572.121 76.8189 578.08 77.4867 582.908 78.8222C587.839 80.1576 592.205 82.2122 596.006 84.986C597.136 85.7051 597.701 86.6296 597.701 87.7597C597.701 88.5815 597.29 89.6602 596.468 90.9956L590.15 101.936C589.431 103.375 588.558 104.094 587.531 104.094C586.914 104.094 585.938 103.683 584.603 102.861C581.829 101.115 579.21 99.8304 576.744 99.0086C574.381 98.1867 571.402 97.7758 567.807 97.7758C562.67 97.7758 558.51 99.4195 555.325 102.707C552.243 105.994 550.702 110.514 550.702 116.267C550.702 122.123 552.294 126.643 555.479 129.827C558.664 132.909 563.03 134.45 568.577 134.45C571.864 134.45 574.844 133.988 577.515 133.063C580.186 132.139 582.908 130.855 585.682 129.211C587.12 128.389 588.147 127.978 588.764 127.978C589.688 127.978 590.51 128.697 591.229 130.136L598.163 142.001C598.677 143.028 598.934 143.85 598.934 144.466C598.934 145.391 598.317 146.264 597.085 147.086C592.77 149.86 588.044 151.914 582.908 153.25C577.874 154.688 571.813 155.407 564.725 155.407Z" fill="white"/>
<path d="M638.004 155.407C628.347 155.407 620.591 152.325 614.736 146.162C608.983 139.895 606.106 131.112 606.106 119.811C606.106 111.182 608.058 103.631 611.962 97.1594C615.968 90.6875 621.567 85.7051 628.758 82.2123C636.052 78.6167 644.425 76.8189 653.876 76.8189C661.683 76.8189 668.566 77.6921 674.524 79.4385C680.585 81.0822 686.133 83.4964 691.167 86.681V148.319C691.167 150.271 690.807 151.555 690.088 152.171C689.369 152.788 687.931 153.096 685.773 153.096H670.056C668.926 153.096 668.052 152.942 667.436 152.633C666.82 152.223 666.306 151.606 665.895 150.784L663.892 146.162C660.913 149.346 657.317 151.658 653.105 153.096C648.996 154.637 643.962 155.407 638.004 155.407ZM649.561 134.45C653.568 134.45 656.701 133.474 658.961 131.523C661.221 129.571 662.351 126.797 662.351 123.201V99.1627C660.399 98.2381 657.934 97.7758 654.954 97.7758C649.51 97.7758 645.144 99.6763 641.856 103.477C638.672 107.278 637.079 112.62 637.079 119.503C637.079 129.468 641.24 134.45 649.561 134.45Z" fill="white"/>
<path d="M787.963 147.24C788.682 148.062 789.042 148.987 789.042 150.014C789.042 150.938 788.734 151.709 788.117 152.325C787.501 152.839 786.679 153.096 785.652 153.096H761.767C760.329 153.096 759.25 152.993 758.531 152.788C757.915 152.479 757.247 151.914 756.528 151.093L735.571 122.585V145.391C735.571 148.062 734.955 150.014 733.722 151.247C732.489 152.479 730.383 153.096 727.404 153.096H712.457C709.478 153.096 707.372 152.479 706.139 151.247C705.009 150.014 704.444 148.062 704.444 145.391V56.1703C704.444 53.4993 705.06 51.5474 706.293 50.3147C707.526 48.9792 709.581 48.3114 712.457 48.3114H727.404C730.383 48.3114 732.489 48.9792 733.722 50.3147C734.955 51.5474 735.571 53.4993 735.571 56.1703V107.792L755.912 81.2877C756.528 80.4658 757.196 79.9008 757.915 79.5926C758.634 79.2845 759.713 79.1304 761.151 79.1304H785.036C786.063 79.1304 786.833 79.4385 787.347 80.0549C787.963 80.5686 788.272 81.2877 788.272 82.2123C788.272 83.2396 787.912 84.1641 787.193 84.986L760.843 115.189L787.963 147.24Z" fill="white"/>
<path d="M837.998 155.407C829.369 155.407 821.664 153.969 814.884 151.093C808.207 148.216 802.916 143.901 799.012 138.149C795.109 132.396 793.157 125.359 793.157 117.038C793.157 103.991 796.855 94.0262 804.252 87.1433C811.648 80.2604 822.281 76.8189 836.149 76.8189C849.71 76.8189 859.983 80.209 866.968 86.9892C874.057 93.6666 877.601 102.964 877.601 114.88C877.601 120.017 875.341 122.585 870.821 122.585H822.435C822.435 127.002 824.078 130.393 827.366 132.755C830.756 135.118 835.841 136.299 842.621 136.299C846.833 136.299 850.326 135.94 853.1 135.221C855.976 134.399 858.853 133.218 861.729 131.677C862.962 131.163 863.784 130.906 864.194 130.906C865.119 130.906 865.889 131.523 866.506 132.755L871.745 142.617C872.259 143.645 872.516 144.415 872.516 144.929C872.516 145.853 871.899 146.727 870.666 147.548C866.455 150.322 861.678 152.325 856.336 153.558C850.994 154.791 844.881 155.407 837.998 155.407ZM849.864 107.33C849.864 103.426 848.734 100.395 846.474 98.2381C844.214 96.0808 840.823 95.0021 836.303 95.0021C831.783 95.0021 828.342 96.1321 825.979 98.3922C823.616 100.55 822.435 103.529 822.435 107.33H849.864Z" fill="white"/>
<path d="M930.417 155.407C921.787 155.407 913.62 154.534 905.916 152.788C898.211 150.938 891.996 148.37 887.27 145.083C885.524 143.953 884.651 142.771 884.651 141.539C884.651 140.717 884.959 139.844 885.575 138.919L893.126 126.9C893.948 125.667 894.769 125.051 895.591 125.051C896.105 125.051 896.978 125.41 898.211 126.129C902.012 128.287 906.326 130.033 911.155 131.368C915.983 132.704 920.76 133.372 925.486 133.372C930.314 133.372 933.858 132.653 936.118 131.214C938.481 129.776 939.662 127.465 939.662 124.28C939.662 121.198 938.378 118.784 935.81 117.038C933.344 115.291 928.67 113.083 921.787 110.412C911.412 106.508 903.296 102.142 897.44 97.3135C891.687 92.3825 888.811 85.7051 888.811 77.2812C888.811 67.111 892.458 59.3549 899.752 54.0129C907.046 48.671 916.753 46 928.876 46C937.299 46 944.491 46.7705 950.449 48.3114C956.51 49.7496 961.646 52.0097 965.858 55.0916C967.605 56.4271 968.478 57.6598 968.478 58.7899C968.478 59.509 968.17 60.3308 967.553 61.2554L960.003 73.2748C959.078 74.5075 958.256 75.1239 957.537 75.1239C957.024 75.1239 956.15 74.7643 954.918 74.0452C948.959 70.1415 941.871 68.1896 933.653 68.1896C929.235 68.1896 925.845 68.9087 923.482 70.347C921.12 71.7852 919.938 74.148 919.938 77.4353C919.938 79.6954 920.555 81.5445 921.787 82.9827C923.02 84.4209 924.664 85.7051 926.718 86.8351C928.876 87.8624 932.163 89.1979 936.58 90.8415L939.508 91.9202C947.11 94.8994 953.069 97.7758 957.383 100.55C961.801 103.22 965.139 106.559 967.399 110.566C969.659 114.469 970.789 119.4 970.789 125.359C970.789 134.502 967.348 141.796 960.465 147.24C953.685 152.685 943.669 155.407 930.417 155.407Z" fill="white"/>
<path d="M1003.53 153.096C1001.99 153.096 1000.81 152.839 999.986 152.325C999.164 151.812 998.547 150.784 998.136 149.243L978.258 82.6745C978.053 82.0582 977.95 81.5959 977.95 81.2877C977.95 79.8495 978.977 79.1304 981.032 79.1304H1001.37C1002.71 79.1304 1003.68 79.3872 1004.3 79.9008C1004.92 80.3117 1005.33 81.0308 1005.53 82.0581L1013.85 117.038L1024.33 88.8383C1024.85 87.6056 1025.36 86.7837 1025.87 86.3728C1026.49 85.8591 1027.52 85.6023 1028.96 85.6023H1038.66C1040.1 85.6023 1041.08 85.8591 1041.59 86.3728C1042.21 86.7837 1042.77 87.6056 1043.29 88.8383L1053.61 117.038L1062.09 82.0581C1062.39 81.0308 1062.8 80.3117 1063.32 79.9008C1063.83 79.3872 1064.76 79.1304 1066.09 79.1304H1086.59C1088.64 79.1304 1089.67 79.8495 1089.67 81.2877C1089.67 81.5959 1089.57 82.0582 1089.36 82.6745L1069.33 149.243C1068.92 150.784 1068.3 151.812 1067.48 152.325C1066.76 152.839 1065.63 153.096 1064.09 153.096H1048.99C1047.55 153.096 1046.47 152.839 1045.75 152.325C1045.03 151.709 1044.42 150.682 1043.9 149.243L1033.73 121.352L1023.56 149.243C1023.15 150.682 1022.53 151.709 1021.71 152.325C1020.99 152.839 1019.92 153.096 1018.48 153.096H1003.53Z" fill="white"/>
<path d="M1128.73 155.407C1119.07 155.407 1111.32 152.325 1105.46 146.162C1099.71 139.895 1096.83 131.112 1096.83 119.811C1096.83 111.182 1098.78 103.631 1102.69 97.1594C1106.69 90.6875 1112.29 85.7051 1119.48 82.2123C1126.78 78.6167 1135.15 76.8189 1144.6 76.8189C1152.41 76.8189 1159.29 77.6921 1165.25 79.4385C1171.31 81.0822 1176.86 83.4964 1181.89 86.681V148.319C1181.89 150.271 1181.53 151.555 1180.81 152.171C1180.09 152.788 1178.66 153.096 1176.5 153.096H1160.78C1159.65 153.096 1158.78 152.942 1158.16 152.633C1157.54 152.223 1157.03 151.606 1156.62 150.784L1154.62 146.162C1151.64 149.346 1148.04 151.658 1143.83 153.096C1139.72 154.637 1134.69 155.407 1128.73 155.407ZM1140.29 134.45C1144.29 134.45 1147.43 133.474 1149.69 131.523C1151.95 129.571 1153.08 126.797 1153.08 123.201V99.1627C1151.12 98.2381 1148.66 97.7758 1145.68 97.7758C1140.23 97.7758 1135.87 99.6763 1132.58 103.477C1129.4 107.278 1127.8 112.62 1127.8 119.503C1127.8 129.468 1131.97 134.45 1140.29 134.45Z" fill="white"/>
<path d="M1203.18 184.223C1200.2 184.223 1198.1 183.607 1196.86 182.374C1195.73 181.141 1195.17 179.189 1195.17 176.518V88.2219C1199.79 84.9346 1205.6 82.2122 1212.58 80.0549C1219.57 77.8976 1226.86 76.8189 1234.46 76.8189C1265.49 76.8189 1281 89.9683 1281 116.267C1281 128.184 1277.71 137.686 1271.14 144.775C1264.56 151.863 1255.27 155.407 1243.25 155.407C1239.86 155.407 1236.57 154.996 1233.38 154.174C1230.3 153.353 1227.73 152.223 1225.68 150.784V176.518C1225.68 179.189 1225.06 181.141 1223.83 182.374C1222.6 183.607 1220.49 184.223 1217.51 184.223H1203.18ZM1236.62 134.604C1241.04 134.604 1244.33 132.961 1246.48 129.673C1248.74 126.283 1249.87 121.763 1249.87 116.113C1249.87 109.436 1248.54 104.761 1245.87 102.09C1243.3 99.3168 1239.29 97.9299 1233.85 97.9299C1230.35 97.9299 1227.58 98.3922 1225.53 99.3168V123.818C1225.53 127.311 1226.5 129.982 1228.45 131.831C1230.41 133.68 1233.13 134.604 1236.62 134.604Z" fill="white"/>
<path fill-rule="evenodd" clip-rule="evenodd" d="M35.7822 30.9487C32.8084 14.8619 45.0272 0 61.2268 0C75.5223 0 87.1112 11.7071 87.1112 26.1485V58.3857C90.687 58.1308 94.3204 58 98.0001 58C101.535 58 105.028 58.1207 108.467 58.3562V26.1485C108.467 11.7071 120.056 0 134.352 0C150.551 0 162.77 14.8619 159.796 30.9487L152.792 68.8417C176.832 79.4445 195.01 97.8599 195.01 121V135C195.01 154.029 182.548 169.962 165.126 180.717C147.569 191.556 123.816 198 98.0001 198C72.184 198 48.4316 191.556 30.8738 180.717C13.452 169.962 0.98999 154.029 0.98999 135V121C0.98999 97.9824 18.9814 79.6378 42.8189 69.0139L35.7822 30.9487ZM143.815 73.8201L152.012 29.4801C154.076 18.315 145.595 8 134.352 8C124.43 8 116.387 16.1254 116.387 26.1485V67.1726C113.787 66.8359 111.145 66.5691 108.467 66.3756C105.034 66.1275 101.541 66 98.0001 66C94.3139 66 90.68 66.1382 87.1112 66.4067C84.433 66.6082 81.7914 66.883 79.192 67.2279V26.1485C79.192 16.1254 71.1487 8 61.2268 8C49.9834 8 41.5029 18.315 43.5668 29.4801L51.7907 73.9672C26.0817 83.6145 8.90918 101.069 8.90918 121V135C8.90918 165.376 48.7965 190 98.0001 190C147.204 190 187.091 165.376 187.091 135V121C187.091 100.967 169.743 83.4364 143.815 73.8201Z" fill="#633001"/>
<path d="M187.091 135C187.091 165.376 147.204 190 98.0001 190C48.7965 190 8.90918 165.376 8.90918 135V121H187.091V135Z" fill="#FEDC90"/>
<path fill-rule="evenodd" clip-rule="evenodd" d="M43.5668 29.4801C41.5029 18.315 49.9834 8 61.2268 8C71.1487 8 79.192 16.1254 79.192 26.1485V67.2279C85.2552 66.4235 91.5475 66 98.0001 66C104.303 66 110.454 66.4041 116.387 67.1726V26.1485C116.387 16.1254 124.43 8 134.352 8C145.595 8 154.076 18.315 152.012 29.4801L143.815 73.8201C169.743 83.4364 187.091 100.967 187.091 121C187.091 151.376 147.204 176 98.0001 176C48.7965 176 8.90918 151.376 8.90918 121C8.90918 101.069 26.0817 83.6145 51.7907 73.9672L43.5668 29.4801Z" fill="#D1884F"/>
<path d="M73.2526 117C73.2526 125.284 68.8206 132 63.3536 132C57.8865 132 53.4546 125.284 53.4546 117C53.4546 108.716 57.8865 102 63.3536 102C68.8206 102 73.2526 108.716 73.2526 117Z" fill="#633001"/>
<path d="M141.556 117C141.556 125.284 137.124 132 131.657 132C126.189 132 121.758 125.284 121.758 117C121.758 108.716 126.189 102 131.657 102C137.124 102 141.556 108.716 141.556 117Z" fill="#633001"/>
</svg>
