<svg width="128" height="128" viewBox="0 0 128 128" fill="none" xmlns="http://www.w3.org/2000/svg">
<rect width="128" height="128" fill="url(#paint0_linear)"/>
<path fill-rule="evenodd" clip-rule="evenodd" d="M37.4525 34.9653C36.1837 28.1016 41.3971 21.7605 48.3089 21.7605C54.4083 21.7605 59.3529 26.7555 59.3529 32.9172V46.6717C60.8786 46.563 62.4288 46.5072 63.9988 46.5072C65.5072 46.5072 66.9973 46.5587 68.4649 46.6592V32.9172C68.4649 26.7555 73.4095 21.7605 79.5089 21.7605C86.4207 21.7605 91.6341 28.1016 90.3653 34.9653L87.3765 51.133C97.6338 55.6568 105.39 63.5141 105.39 73.3872V79.3605C105.39 87.4797 100.073 94.2775 92.6394 98.8665C85.1481 103.491 75.0137 106.24 63.9988 106.24C52.984 106.24 42.8496 103.491 35.3583 98.8665C27.925 94.2775 22.6078 87.4797 22.6078 79.3605V73.3872C22.6078 63.5663 30.2842 55.7393 40.4549 51.2064L37.4525 34.9653ZM83.5466 53.2571L87.0438 34.3387C87.9245 29.5749 84.3061 25.1738 79.5089 25.1738C75.2756 25.1738 71.8438 28.6407 71.8438 32.9172V50.4208C70.7345 50.2771 69.6075 50.1633 68.4649 50.0808C67.0001 49.9749 65.5097 49.9205 63.9988 49.9205C62.426 49.9205 60.8756 49.9795 59.3529 50.094C58.2102 50.18 57.0831 50.2973 55.974 50.4444V32.9172C55.974 28.6407 52.5422 25.1738 48.3089 25.1738C43.5117 25.1738 39.8933 29.5749 40.774 34.3387L44.2828 53.3198C33.3136 57.436 25.9867 64.8834 25.9867 73.3872V79.3605C25.9867 92.3208 43.0053 102.827 63.9988 102.827C84.9923 102.827 102.011 92.3208 102.011 79.3605V73.3872C102.011 64.84 94.609 57.36 83.5466 53.2571Z" fill="#633001"/>
<path d="M102.011 79.3605C102.011 92.3208 84.9923 102.827 63.9988 102.827C43.0053 102.827 25.9867 92.3208 25.9867 79.3605V73.3872H102.011V79.3605Z" fill="#FEDC90"/>
<path fill-rule="evenodd" clip-rule="evenodd" d="M40.774 34.3387C39.8933 29.5749 43.5117 25.1738 48.3089 25.1738C52.5422 25.1738 55.974 28.6407 55.974 32.9172V50.4444C58.561 50.1012 61.2457 49.9205 63.9988 49.9205C66.6882 49.9205 69.3123 50.0929 71.8438 50.4208V32.9172C71.8438 28.6407 75.2756 25.1738 79.5089 25.1738C84.3061 25.1738 87.9245 29.5749 87.0438 34.3387L83.5466 53.2571C94.609 57.36 102.011 64.8399 102.011 73.3872C102.011 86.3474 84.9923 96.8538 63.9988 96.8538C43.0053 96.8538 25.9867 86.3474 25.9867 73.3872C25.9867 64.8834 33.3136 57.436 44.2828 53.3198L40.774 34.3387Z" fill="#D1884F"/>
<path d="M53.4399 71.6805C53.4399 75.2151 51.5489 78.0805 49.2163 78.0805C46.8837 78.0805 44.9927 75.2151 44.9927 71.6805C44.9927 68.1459 46.8837 65.2805 49.2163 65.2805C51.5489 65.2805 53.4399 68.1459 53.4399 71.6805Z" fill="#633001"/>
<path d="M82.5825 71.6805C82.5825 75.2151 80.6916 78.0805 78.3589 78.0805C76.0263 78.0805 74.1354 75.2151 74.1354 71.6805C74.1354 68.1459 76.0263 65.2805 78.3589 65.2805C80.6916 65.2805 82.5825 68.1459 82.5825 71.6805Z" fill="#633001"/>
<defs>
<linearGradient id="paint0_linear" x1="64" y1="0" x2="64" y2="128" gradientUnits="userSpaceOnUse">
<stop stop-color="#54DADE"/>
<stop offset="0.762157" stop-color="#24C7D6"/>
</linearGradient>
</defs>
</svg>
