<svg width="192" height="192" viewBox="0 0 192 192" fill="none" xmlns="http://www.w3.org/2000/svg">
<rect width="192" height="192" fill="url(#paint0_linear)"/>
<path fill-rule="evenodd" clip-rule="evenodd" d="M56.1799 52.4475C54.2767 42.152 62.0968 32.6404 72.4645 32.6404C81.6136 32.6404 89.0305 40.1329 89.0305 49.3754V70.0072C91.319 69.8441 93.6444 69.7604 95.9994 69.7604C98.2619 69.7604 100.497 69.8376 102.699 69.9884V49.3754C102.699 40.1329 110.115 32.6404 119.265 32.6404C129.632 32.6404 137.452 42.152 135.549 52.4475L131.066 76.6991C146.452 83.4848 158.086 95.2707 158.086 110.08V119.04C158.086 131.219 150.11 141.416 138.96 148.299C127.723 155.236 112.522 159.36 95.9994 159.36C79.4771 159.36 64.2755 155.236 53.0386 148.299C41.8886 141.416 33.9129 131.219 33.9129 119.04V110.08C33.9129 95.3491 45.4274 83.6086 60.6834 76.8093L56.1799 52.4475ZM125.321 79.8853L130.567 51.5077C131.888 44.362 126.46 37.7604 119.265 37.7604C112.915 37.7604 107.767 42.9606 107.767 49.3754V75.6309C106.103 75.4153 104.412 75.2446 102.699 75.1208C100.501 74.962 98.2657 74.8804 95.9994 74.8804C93.6402 74.8804 91.3145 74.9688 89.0305 75.1407C87.3164 75.2696 85.6258 75.4455 83.9622 75.6662V49.3754C83.9622 42.9606 78.8145 37.7604 72.4645 37.7604C65.2687 37.7604 59.8412 44.362 61.1621 51.5076L66.4254 79.9794C49.9716 86.1536 38.9812 97.3247 38.9812 110.08V119.04C38.9812 138.481 64.5091 154.24 95.9994 154.24C127.49 154.24 153.018 138.481 153.018 119.04V110.08C153.018 97.2596 141.915 86.0397 125.321 79.8853Z" fill="#633001"/>
<path d="M153.018 119.04C153.018 138.481 127.49 154.24 95.9994 154.24C64.5091 154.24 38.9812 138.481 38.9812 119.04V110.08H153.018V119.04Z" fill="#FEDC90"/>
<path fill-rule="evenodd" clip-rule="evenodd" d="M61.1621 51.5075C59.8412 44.3619 65.2687 37.7603 72.4645 37.7603C78.8145 37.7603 83.9622 42.9605 83.9622 49.3753V75.6661C87.8427 75.1513 91.8698 74.8803 95.9994 74.8803C100.033 74.8803 103.97 75.1389 107.767 75.6307V49.3753C107.767 42.9605 112.915 37.7603 119.265 37.7603C126.46 37.7603 131.888 44.3619 130.567 51.5075L125.321 79.8851C141.915 86.0395 153.018 97.2594 153.018 110.08C153.018 129.521 127.49 145.28 95.9994 145.28C64.5091 145.28 38.9812 129.521 38.9812 110.08C38.9812 97.3245 49.9716 86.1535 66.4254 79.9793L61.1621 51.5075Z" fill="#D1884F"/>
<path d="M80.1609 107.52C80.1609 112.822 77.3245 117.12 73.8256 117.12C70.3267 117.12 67.4902 112.822 67.4902 107.52C67.4902 102.218 70.3267 97.9204 73.8256 97.9204C77.3245 97.9204 80.1609 102.218 80.1609 107.52Z" fill="#633001"/>
<path d="M123.875 107.52C123.875 112.822 121.038 117.12 117.54 117.12C114.041 117.12 111.204 112.822 111.204 107.52C111.204 102.218 114.041 97.9204 117.54 97.9204C121.038 97.9204 123.875 102.218 123.875 107.52Z" fill="#633001"/>
<defs>
<linearGradient id="paint0_linear" x1="96" y1="0" x2="96" y2="192" gradientUnits="userSpaceOnUse">
<stop stop-color="#54DADE"/>
<stop offset="0.762157" stop-color="#24C7D6"/>
</linearGradient>
</defs>
</svg>
