<svg width="90" height="91" viewBox="0 0 90 91" fill="none" xmlns="http://www.w3.org/2000/svg">
<rect width="90" height="90" transform="translate(0 0.379883)" fill="url(#paint0_linear)"/>
<path d="M73.3736 36.6757C74.0089 37.3109 74.0965 38.3106 73.5813 39.0466C64.156 52.5132 52.5009 64.2718 39.1183 73.816L38.0615 74.5697C37.2865 75.1224 36.2256 75.0342 35.5525 74.3611L30.7949 69.6035C33.6034 66.6954 33.5726 62.061 30.7024 59.1908C27.8321 56.3206 23.1978 56.2898 20.2897 59.0983L15.9135 54.7221C15.0813 53.8899 15.1961 52.5095 16.1543 51.8262L17.2118 51.072C30.2708 41.7585 41.6441 30.2841 50.8416 17.1431C51.4859 16.2227 52.8051 16.1071 53.5995 16.9016L58.0534 21.3555C55.2555 24.2643 55.2898 28.8907 58.1565 31.7573C61.0231 34.6239 65.6495 34.6583 68.5583 31.8603L73.3736 36.6757Z" fill="#DBCDF9"/>
<path d="M75.4824 37.9914L58.4735 59.5289L36.4742 76.1816L32.2434 71.9203L30.717 70.0698L32.2434 67.8612L32.7783 65.6526L32.4838 63.2968L31.6004 61.0882L30.128 59.3213L28.3611 58.1434L26.447 57.5544H24.0912L21.5881 58.4379L20.1157 59.763L16.582 55.4931L22.3304 54.6358C40.1601 51.9766 57.0065 44.7776 71.2515 33.7301L75.4824 37.9914Z" fill="#A28BD4"/>
<path fill-rule="evenodd" clip-rule="evenodd" d="M28.6481 69.8102C28.6488 69.1845 28.8983 68.5848 29.3416 68.1433L29.3495 68.1355C31.3309 66.1541 31.3309 62.9416 29.3495 60.9603C27.3681 58.9789 24.1556 58.9789 22.1742 60.9603L22.1664 60.9681C21.7249 61.4114 21.1252 61.6609 20.4996 61.6616C19.8739 61.6623 19.2737 61.414 18.8313 60.9716L14.2477 56.3881C12.3856 54.526 12.6424 51.4373 14.7864 49.9082L15.8439 49.154L17.2118 51.0721L16.1543 51.8263C15.1961 52.5096 15.0813 53.89 15.9135 54.7222L20.4971 59.3058L20.5084 59.2944C20.512 59.2908 20.5156 59.2872 20.5193 59.2836C23.4215 56.393 28.1175 56.3966 31.0153 59.2944C33.9129 62.192 33.9167 66.8875 31.0268 69.7898C31.023 69.7936 31.0191 69.7975 31.0153 69.8013L31.0039 69.8126L35.5525 74.3612C36.2256 75.0343 37.2865 75.1225 38.0615 74.5698L39.1183 73.8161C52.5009 64.2719 64.156 52.5132 73.5813 39.0467C74.0965 38.3107 74.0089 37.311 73.3736 36.6758L68.5957 31.8979C68.5784 31.9156 68.5609 31.9332 68.5434 31.9508C68.5258 31.9683 68.5081 31.9858 68.4904 32.0032C65.585 34.852 60.9203 34.8346 58.0365 31.9508C55.1526 29.0669 55.1352 24.4021 57.9842 21.4967C58.0015 21.479 58.019 21.4614 58.0365 21.4439C58.0541 21.4263 58.0717 21.4089 58.0894 21.3915L53.5996 16.9017C52.8051 16.1072 51.4859 16.2228 50.8417 17.1432C41.6441 30.2842 30.2708 41.7586 17.2118 51.0721L15.8439 49.154C28.6846 39.9963 39.8678 28.7137 48.9116 15.7924C50.3959 13.6717 53.4351 13.4055 55.2654 15.2358L59.7552 19.7257C60.1998 20.1703 60.4483 20.7742 60.4452 21.403C60.4421 22.0318 60.1878 22.6333 59.7388 23.0736C59.7266 23.0855 59.7145 23.0976 59.7023 23.1097C57.721 25.0911 57.721 28.3035 59.7023 30.2849C61.6837 32.2663 64.8962 32.2663 66.8776 30.2849C66.8896 30.2729 66.9016 30.2607 66.9137 30.2484C67.3539 29.7995 67.9554 29.5451 68.5842 29.5421C69.213 29.539 69.8169 29.7874 70.2616 30.232L75.0395 35.0099C76.483 36.4535 76.682 38.725 75.5114 40.3976C65.9323 54.0838 54.0871 66.0343 40.4862 75.7341L39.4294 76.4878C37.7173 77.7088 35.3736 77.514 33.8867 76.027L29.3381 71.4785C28.8957 71.036 28.6475 70.4358 28.6481 69.8102Z" fill="#633001"/>
<path fill-rule="evenodd" clip-rule="evenodd" d="M44.6473 25.1325L45.6884 26.1736C46.1484 26.6336 46.1484 27.3794 45.6884 27.8394C45.2284 28.2995 44.4826 28.2995 44.0226 27.8394L42.9815 26.7983C42.5215 26.3383 42.5215 25.5925 42.9815 25.1325C43.4415 24.6725 44.1873 24.6725 44.6473 25.1325Z" fill="#633001"/>
<path fill-rule="evenodd" clip-rule="evenodd" d="M49.0202 29.5053L50.0614 30.5464C50.5214 31.0064 50.5214 31.7522 50.0614 32.2123C49.6014 32.6723 48.8555 32.6723 48.3955 32.2123L47.3544 31.1711C46.8944 30.7111 46.8944 29.9653 47.3544 29.5053C47.8144 29.0453 48.5602 29.0453 49.0202 29.5053Z" fill="#633001"/>
<path fill-rule="evenodd" clip-rule="evenodd" d="M54.4341 36.5851C53.9741 37.0451 53.2283 37.0451 52.7683 36.5851L51.5189 35.3357C51.0589 34.8757 51.0589 34.1299 51.5189 33.6699C51.9789 33.2099 52.7247 33.2099 53.1847 33.6699L54.4341 34.9192C54.8941 35.3792 54.8941 36.1251 54.4341 36.5851Z" fill="#633001"/>
<path fill-rule="evenodd" clip-rule="evenodd" d="M58.8069 40.9579C58.3468 41.4179 57.601 41.4179 57.141 40.9579L55.8917 39.7085C55.4316 39.2485 55.4317 38.5027 55.8917 38.0427C56.3517 37.5827 57.0975 37.5827 57.5575 38.0427L58.8069 39.292C59.2669 39.752 59.2669 40.4979 58.8069 40.9579Z" fill="#633001"/>
<path fill-rule="evenodd" clip-rule="evenodd" d="M61.9303 42.4154L62.9714 43.4566C63.4314 43.9166 63.4314 44.6624 62.9714 45.1224C62.5114 45.5824 61.7656 45.5824 61.3056 45.1224L60.2644 44.0813C59.8044 43.6213 59.8044 42.8754 60.2644 42.4154C60.7244 41.9554 61.4703 41.9554 61.9303 42.4154Z" fill="#633001"/>
<path fill-rule="evenodd" clip-rule="evenodd" d="M66.303 46.7882L67.3441 47.8294C67.8041 48.2894 67.8042 49.0352 67.3441 49.4952C66.8841 49.9552 66.1383 49.9552 65.6783 49.4952L64.6372 48.4541C64.1772 47.9941 64.1772 47.2482 64.6372 46.7882C65.0972 46.3282 65.843 46.3282 66.303 46.7882Z" fill="#633001"/>
<path fill-rule="evenodd" clip-rule="evenodd" d="M38.5556 43.3841C37.2902 42.1188 37.2902 40.0673 38.5556 38.8019C39.9894 37.3681 42.3731 37.5887 43.5194 39.2614L46.4058 43.4733C48.925 42.6652 51.5984 42.7724 53.37 44.544C54.9625 46.1365 55.2042 48.4834 54.6643 50.72C54.1184 52.9817 52.7378 55.3642 50.7079 57.3942C48.6779 59.4241 46.2955 60.8047 44.0337 61.3506C41.7971 61.8905 39.4503 61.6488 37.8578 60.0563C36.0964 58.2949 35.9805 55.6415 36.7727 53.1368L32.5428 50.2381C30.8701 49.0918 30.6494 46.7081 32.0833 45.2742C33.3486 44.0089 35.4001 44.0089 36.6655 45.2742L39.5964 48.2052C39.8866 47.865 40.1946 47.5314 40.5199 47.2061C40.834 46.892 41.156 46.594 41.484 46.3126L38.5556 43.3841Z" fill="#633001"/>
<ellipse cx="42.2043" cy="54.0208" rx="1.41674" ry="2.06072" transform="rotate(-45 42.2043 54.0208)" fill="#DBCDF9"/>
<ellipse cx="47.4865" cy="48.7386" rx="1.41674" ry="2.06072" transform="rotate(-45 47.4865 48.7386)" fill="#DBCDF9"/>
<path d="M75.5424 65.6216C75.2982 66.5518 73.9777 66.5518 73.7335 65.6216L72.4197 60.6155C72.334 60.2891 72.0791 60.0341 71.7526 59.9485L66.7466 58.6346C65.8163 58.3905 65.8163 57.0699 66.7466 56.8258L71.7526 55.5119C72.0791 55.4263 72.334 55.1713 72.4197 54.8449L73.7335 49.8388C73.9777 48.9086 75.2982 48.9086 75.5424 49.8388L76.8562 54.8449C76.9419 55.1713 77.1968 55.4263 77.5233 55.5119L82.5294 56.8258C83.4596 57.0699 83.4596 58.3905 82.5294 58.6346L77.5233 59.9485C77.1968 60.0341 76.9419 60.2891 76.8562 60.6155L75.5424 65.6216Z" fill="#53DEE9"/>
<path d="M30.568 15.8278C30.7392 15.1754 31.6653 15.1754 31.8365 15.8278L32.7579 19.3385C32.818 19.5675 32.9968 19.7463 33.2257 19.8063L36.7365 20.7277C37.3889 20.899 37.3889 21.8251 36.7365 21.9963L33.2257 22.9177C32.9968 22.9778 32.818 23.1565 32.7579 23.3855L31.8365 26.8962C31.6653 27.5486 30.7392 27.5486 30.568 26.8962L29.6466 23.3855C29.5865 23.1565 29.4077 22.9778 29.1788 22.9177L25.6681 21.9963C25.0157 21.8251 25.0157 20.899 25.6681 20.7277L29.1788 19.8063C29.4077 19.7463 29.5865 19.5675 29.6466 19.3385L30.568 15.8278Z" fill="#53DEE9"/>
<path d="M19.098 73.9798C18.987 74.4026 18.3868 74.4026 18.2758 73.9798L17.6786 71.7043C17.6397 71.5559 17.5238 71.44 17.3754 71.4011L15.0999 70.8039C14.6771 70.6929 14.6771 70.0926 15.0999 69.9817L17.3754 69.3845C17.5238 69.3455 17.6397 69.2296 17.6786 69.0813L18.2758 66.8058C18.3868 66.3829 18.987 66.3829 19.098 66.8058L19.6952 69.0813C19.7341 69.2296 19.85 69.3455 19.9984 69.3845L22.2739 69.9817C22.6967 70.0926 22.6967 70.6929 22.2739 70.8039L19.9984 71.4011C19.85 71.44 19.7341 71.5559 19.6952 71.7043L19.098 73.9798Z" fill="#53DEE9"/>
<defs>
<linearGradient id="paint0_linear" x1="45" y1="0" x2="45" y2="90" gradientUnits="userSpaceOnUse">
<stop stop-color="#54DADE"/>
<stop offset="0.762157" stop-color="#24C7D6"/>
</linearGradient>
</defs>
</svg>
