<svg width="128" height="129" viewBox="0 0 128 129" fill="none" xmlns="http://www.w3.org/2000/svg">
<rect width="128" height="128" transform="translate(0 0.379883)" fill="url(#paint0_linear)"/>
<path d="M104.167 50.9876C105.063 51.8838 105.186 53.294 104.459 54.3323C91.1636 73.3289 74.7222 89.9164 55.844 103.38L54.3532 104.443C53.2599 105.223 51.7634 105.098 50.8139 104.149L44.1025 97.4376C48.0644 93.3352 48.0209 86.7977 43.972 82.7488C39.9231 78.6999 33.3856 78.6564 29.2832 82.6183L23.11 76.445C21.936 75.2711 22.0979 73.3238 23.4496 72.3598L24.9414 71.2959C43.3632 58.1578 59.4071 41.9713 72.3816 23.4339C73.2904 22.1355 75.1514 21.9725 76.2721 23.0932L82.555 29.3761C78.608 33.4794 78.6565 40.0057 82.7003 44.0495C86.7442 48.0934 93.2704 48.1418 97.3737 44.1949L104.167 50.9876Z" fill="#DBCDF9"/>
<path d="M107.141 52.8437L83.1477 83.2257L52.1141 106.717L46.1459 100.706L43.9926 98.0953L46.1459 94.9797L46.9005 91.8641L46.4851 88.5409L45.2389 85.4253L43.1618 82.9328L40.6694 81.2712L37.9692 80.4404H34.6459L31.1149 81.6866L29.0379 83.556L24.053 77.5325L32.162 76.3231C57.3136 72.572 81.0781 62.4166 101.173 46.8324L107.141 52.8437Z" fill="#A28BD4"/>
<path fill-rule="evenodd" clip-rule="evenodd" d="M41.0741 97.729C41.0751 96.8464 41.427 96.0004 42.0524 95.3776L42.0635 95.3666C44.8586 92.5715 44.8586 88.0398 42.0635 85.2448C39.2685 82.4497 34.7368 82.4497 31.9417 85.2448L31.9307 85.2559C31.3079 85.8813 30.4619 86.2332 29.5793 86.2342C28.6967 86.2351 27.85 85.8849 27.2259 85.2608L20.7601 78.795C18.1333 76.1682 18.4956 71.8111 21.52 69.6542L23.0117 68.5903L24.9414 71.296L23.4496 72.3598C22.0979 73.3238 21.9361 75.2711 23.11 76.4451L29.5758 82.9109L29.5918 82.8949C29.5969 82.8898 29.602 82.8847 29.6071 82.8796C33.7012 78.802 40.3256 78.8071 44.4134 82.8949C48.5009 86.9823 48.5063 93.6061 44.4296 97.7002C44.4242 97.7057 44.4188 97.7111 44.4134 97.7165L44.3974 97.7325L50.8139 104.149C51.7634 105.098 53.26 105.223 54.3532 104.443L55.844 103.38C74.7223 89.9164 91.1636 73.3289 104.459 54.3323C105.186 53.294 105.063 51.8838 104.167 50.9877L97.4266 44.2477C97.4021 44.2727 97.3775 44.2975 97.3527 44.3223C97.3279 44.3471 97.303 44.3718 97.278 44.3963C93.1795 48.415 86.5992 48.3904 82.5311 44.3223C78.463 40.2542 78.4384 33.6737 82.4573 29.5752C82.4818 29.5503 82.5064 29.5254 82.5311 29.5007C82.5559 29.4759 82.5807 29.4513 82.6057 29.4268L76.2721 23.0932C75.1514 21.9725 73.2904 22.1355 72.3816 23.434C59.4071 41.9714 43.3632 58.1579 24.9414 71.296L23.0117 68.5903C41.1256 55.6718 56.9013 39.7559 69.659 21.5284C71.7528 18.5369 76.0401 18.1614 78.622 20.7433L84.9556 27.0769C85.5828 27.7041 85.9333 28.5561 85.9289 29.4431C85.9246 30.3301 85.5658 31.1786 84.9325 31.7996C84.9153 31.8165 84.8981 31.8335 84.881 31.8506C82.086 34.6457 82.086 39.1773 84.881 41.9724C87.6761 44.7675 92.2077 44.7675 95.0028 41.9724C95.0198 41.9554 95.0368 41.9383 95.0538 41.9209C95.6748 41.2876 96.5233 40.9288 97.4103 40.9245C98.2973 40.9201 99.1493 41.2706 99.7765 41.8978L106.516 48.6378C108.553 50.6741 108.834 53.8785 107.182 56.2379C93.6693 75.5444 76.9598 92.4025 57.7737 106.086L56.2828 107.149C53.8677 108.871 50.5615 108.596 48.464 106.499L42.0475 100.082C41.4234 99.4583 41.0732 98.6116 41.0741 97.729Z" fill="#633001"/>
<path fill-rule="evenodd" clip-rule="evenodd" d="M63.6435 34.7042L65.1122 36.1729C65.7611 36.8218 65.7611 37.8739 65.1122 38.5228C64.4633 39.1717 63.4112 39.1717 62.7623 38.5228L61.2936 37.0541C60.6447 36.4052 60.6447 35.3531 61.2936 34.7042C61.9425 34.0553 62.9946 34.0553 63.6435 34.7042Z" fill="#633001"/>
<path fill-rule="evenodd" clip-rule="evenodd" d="M69.8122 40.8726L71.2809 42.3413C71.9298 42.9903 71.9298 44.0423 71.2809 44.6913C70.6319 45.3402 69.5799 45.3402 68.9309 44.6913L67.4622 43.2226C66.8133 42.5737 66.8133 41.5216 67.4622 40.8727C68.1112 40.2237 69.1632 40.2237 69.8122 40.8726Z" fill="#633001"/>
<path fill-rule="evenodd" clip-rule="evenodd" d="M77.4494 50.8598C76.8005 51.5087 75.7484 51.5087 75.0995 50.8598L73.337 49.0974C72.6881 48.4485 72.6881 47.3964 73.337 46.7475C73.9859 46.0986 75.038 46.0986 75.6869 46.7475L77.4494 48.5099C78.0983 49.1588 78.0983 50.2109 77.4494 50.8598Z" fill="#633001"/>
<path fill-rule="evenodd" clip-rule="evenodd" d="M83.6178 57.0283C82.9689 57.6772 81.9168 57.6772 81.2679 57.0283L79.5055 55.2659C78.8566 54.6169 78.8566 53.5649 79.5055 52.9159C80.1544 52.267 81.2065 52.267 81.8554 52.9159L83.6178 54.6784C84.2667 55.3273 84.2667 56.3794 83.6178 57.0283Z" fill="#633001"/>
<path fill-rule="evenodd" clip-rule="evenodd" d="M88.0239 59.0844L89.4926 60.5531C90.1415 61.202 90.1415 62.2541 89.4926 62.903C88.8437 63.552 87.7916 63.552 87.1427 62.903L85.674 61.4344C85.0251 60.7854 85.0251 59.7334 85.674 59.0844C86.3229 58.4355 87.375 58.4355 88.0239 59.0844Z" fill="#633001"/>
<path fill-rule="evenodd" clip-rule="evenodd" d="M94.1923 65.253L95.661 66.7217C96.31 67.3706 96.31 68.4227 95.661 69.0716C95.0121 69.7205 93.96 69.7205 93.3111 69.0716L91.8424 67.6029C91.1935 66.954 91.1935 65.9019 91.8424 65.253C92.4913 64.6041 93.5434 64.6041 94.1923 65.253Z" fill="#633001"/>
<path fill-rule="evenodd" clip-rule="evenodd" d="M55.0502 60.451C53.2652 58.666 53.2652 55.7721 55.0501 53.9871C57.0728 51.9644 60.4354 52.2757 62.0524 54.6353L66.1241 60.5769C69.6778 59.4368 73.4491 59.5881 75.9482 62.0873C78.1947 64.3337 78.5357 67.6443 77.7741 70.7994C77.0039 73.9899 75.0565 77.3508 72.1929 80.2144C69.3293 83.078 65.9685 85.0254 62.7779 85.7956C59.6228 86.5571 56.3123 86.2162 54.0658 83.9697C51.5812 81.4851 51.4176 77.742 52.5352 74.2087L46.5682 70.1196C44.2086 68.5026 43.8973 65.14 45.92 63.1173C47.7049 61.3324 50.5989 61.3324 52.3839 63.1173L56.5184 67.2519C56.9278 66.7721 57.3623 66.3014 57.8211 65.8426C58.2642 65.3995 58.7184 64.9791 59.1812 64.582L55.0502 60.451Z" fill="#633001"/>
<ellipse cx="60.1973" cy="75.4556" rx="1.99854" ry="2.90697" transform="rotate(-45 60.1973 75.4556)" fill="#DBCDF9"/>
<ellipse cx="67.6486" cy="68.0042" rx="1.99854" ry="2.90697" transform="rotate(-45 67.6486 68.0042)" fill="#DBCDF9"/>
<path d="M107.226 91.8203C106.882 93.1326 105.019 93.1326 104.674 91.8203L102.821 84.7585C102.7 84.298 102.34 83.9383 101.88 83.8175L94.8181 81.9641C93.5058 81.6197 93.5058 79.7568 94.8181 79.4124L101.88 77.5591C102.34 77.4382 102.7 77.0786 102.821 76.6181L104.674 69.5562C105.019 68.244 106.882 68.244 107.226 69.5562L109.079 76.6181C109.2 77.0786 109.56 77.4382 110.02 77.5591L117.082 79.4124C118.394 79.7568 118.394 81.6197 117.082 81.9641L110.02 83.8175C109.56 83.9383 109.2 84.298 109.079 84.7585L107.226 91.8203Z" fill="#53DEE9"/>
<path d="M43.7824 21.5784C44.024 20.6581 45.3304 20.6581 45.5719 21.5784L46.8717 26.5309C46.9564 26.8538 47.2086 27.106 47.5316 27.1908L52.4841 28.4906C53.4043 28.7321 53.4043 30.0385 52.4841 30.28L47.5316 31.5798C47.2086 31.6646 46.9564 31.9168 46.8717 32.2397L45.5719 37.1922C45.3304 38.1125 44.024 38.1125 43.7824 37.1922L42.4827 32.2397C42.3979 31.9168 42.1457 31.6646 41.8227 31.5798L36.8703 30.28C35.95 30.0385 35.95 28.7321 36.8703 28.4906L41.8227 27.1908C42.1457 27.106 42.3979 26.8538 42.4827 26.5309L43.7824 21.5784Z" fill="#53DEE9"/>
<path d="M27.6022 103.611C27.4457 104.207 26.5989 104.207 26.4424 103.611L25.5999 100.401C25.545 100.192 25.3815 100.028 25.1722 99.9732L21.9623 99.1308C21.3658 98.9742 21.3658 98.1275 21.9623 97.9709L25.1722 97.1285C25.3815 97.0735 25.545 96.9101 25.5999 96.7008L26.4424 93.4908C26.5989 92.8943 27.4457 92.8943 27.6022 93.4908L28.4446 96.7008C28.4996 96.9101 28.6631 97.0735 28.8724 97.1285L32.0823 97.9709C32.6788 98.1275 32.6788 98.9742 32.0823 99.1308L28.8724 99.9732C28.6631 100.028 28.4996 100.192 28.4446 100.401L27.6022 103.611Z" fill="#53DEE9"/>
<defs>
<linearGradient id="paint0_linear" x1="64" y1="0" x2="64" y2="128" gradientUnits="userSpaceOnUse">
<stop stop-color="#54DADE"/>
<stop offset="0.762157" stop-color="#24C7D6"/>
</linearGradient>
</defs>
</svg>
