<svg width="512" height="513" viewBox="0 0 512 513" fill="none" xmlns="http://www.w3.org/2000/svg">
<rect width="512" height="512" transform="translate(0 0.379883)" fill="url(#paint0_linear)"/>
<path d="M419.538 204.405C423.164 208.03 423.663 213.735 420.723 217.935C366.935 294.786 300.423 361.89 224.051 416.356L218.02 420.657C213.597 423.811 207.543 423.308 203.702 419.467L176.551 392.316C192.579 375.72 192.403 349.273 176.023 332.894C159.644 316.514 133.196 316.338 116.6 332.365L91.6269 307.392C86.8777 302.643 87.5326 294.765 93.0008 290.865L99.0356 286.561C173.561 233.412 238.466 167.93 290.954 92.9373C294.63 87.6844 302.158 87.025 306.692 91.5588L332.11 116.976C316.142 133.576 316.338 159.978 332.698 176.337C349.057 192.696 375.459 192.892 392.058 176.925L419.538 204.405Z" fill="#DBCDF9"/>
<path d="M431.572 211.914L334.507 334.823L208.962 429.856L184.818 405.538L176.107 394.977L184.818 382.374L187.87 369.77L186.19 356.325L181.148 343.721L172.746 333.638L162.663 326.916L151.739 323.555H138.295L124.011 328.597L115.608 336.159L95.4416 311.792L128.246 306.899C229.996 291.724 326.135 250.641 407.428 187.595L431.572 211.914Z" fill="#A28BD4"/>
<path fill-rule="evenodd" clip-rule="evenodd" d="M164.3 393.495C164.304 389.925 165.728 386.502 168.258 383.983L168.303 383.938C179.61 372.631 179.61 354.298 168.303 342.991C156.995 331.684 138.663 331.684 127.355 342.991L127.311 343.036C124.791 345.566 121.369 346.99 117.798 346.993C114.228 346.997 110.802 345.58 108.278 343.056L82.1204 316.898C71.494 306.272 72.9593 288.646 85.1945 279.92L91.2293 275.616L99.0356 286.561L93.0008 290.865C87.5326 294.765 86.8777 302.643 91.6269 307.392L117.784 333.549L117.849 333.484C117.869 333.464 117.89 333.443 117.911 333.423C134.473 316.927 161.272 316.948 177.809 333.484C194.345 350.02 194.367 376.816 177.875 393.379C177.853 393.401 177.831 393.423 177.809 393.445L177.744 393.509L203.702 419.467C207.543 423.308 213.597 423.812 218.02 420.657L224.051 416.356C300.423 361.89 366.935 294.786 420.724 217.936C423.663 213.735 423.164 208.03 419.538 204.405L392.272 177.139C392.173 177.24 392.073 177.34 391.973 177.44C391.873 177.541 391.772 177.641 391.671 177.74C375.091 193.997 348.47 193.898 332.013 177.44C315.555 160.983 315.456 134.362 331.715 117.782C331.813 117.681 331.913 117.58 332.013 117.48C332.113 117.38 332.214 117.28 332.315 117.181L306.692 91.5589C302.158 87.0251 294.63 87.6845 290.954 92.9374C238.466 167.93 173.561 233.412 99.0356 286.561L91.2293 275.616C164.509 223.354 228.329 158.967 279.939 85.2283C288.41 73.1264 305.754 71.6073 316.199 82.0524L341.821 107.675C344.359 110.212 345.776 113.659 345.759 117.247C345.741 120.836 344.29 124.268 341.728 126.78C341.658 126.849 341.589 126.917 341.519 126.987C330.212 138.294 330.212 156.627 341.519 167.934C352.827 179.241 371.159 179.241 382.467 167.934C382.535 167.865 382.604 167.796 382.673 167.726C385.185 165.164 388.618 163.712 392.206 163.695C395.795 163.677 399.241 165.095 401.779 167.632L429.045 194.899C437.283 203.137 438.418 216.1 431.738 225.645C377.072 303.748 309.475 371.947 231.858 427.302L225.826 431.603C216.056 438.571 202.681 437.459 194.196 428.974L168.238 403.016C165.713 400.491 164.296 397.066 164.3 393.495Z" fill="#633001"/>
<path fill-rule="evenodd" clip-rule="evenodd" d="M255.604 138.531L261.545 144.472C264.171 147.097 264.171 151.353 261.545 153.979C258.92 156.604 254.664 156.604 252.039 153.979L246.097 148.037C243.472 145.412 243.472 141.156 246.097 138.531C248.722 135.905 252.979 135.905 255.604 138.531Z" fill="#633001"/>
<path fill-rule="evenodd" clip-rule="evenodd" d="M280.559 163.485L286.501 169.427C289.126 172.052 289.126 176.308 286.501 178.933C283.875 181.558 279.619 181.558 276.994 178.933L271.052 172.992C268.427 170.366 268.427 166.11 271.052 163.485C273.678 160.86 277.934 160.86 280.559 163.485Z" fill="#633001"/>
<path fill-rule="evenodd" clip-rule="evenodd" d="M311.455 203.888C308.83 206.513 304.573 206.513 301.948 203.888L294.818 196.758C292.193 194.133 292.193 189.876 294.818 187.251C297.444 184.626 301.7 184.626 304.325 187.251L311.455 194.381C314.08 197.006 314.08 201.263 311.455 203.888Z" fill="#633001"/>
<path fill-rule="evenodd" clip-rule="evenodd" d="M336.409 228.842C333.784 231.467 329.528 231.467 326.903 228.842L319.773 221.712C317.148 219.087 317.148 214.831 319.773 212.206C322.398 209.581 326.654 209.581 329.279 212.206L336.409 219.336C339.034 221.961 339.034 226.217 336.409 228.842Z" fill="#633001"/>
<path fill-rule="evenodd" clip-rule="evenodd" d="M354.234 237.16L360.175 243.102C362.8 245.727 362.8 249.983 360.175 252.608C357.55 255.233 353.294 255.233 350.669 252.608L344.727 246.667C342.102 244.042 342.102 239.785 344.727 237.16C347.352 234.535 351.609 234.535 354.234 237.16Z" fill="#633001"/>
<path fill-rule="evenodd" clip-rule="evenodd" d="M379.188 262.115L385.13 268.056C387.755 270.682 387.755 274.938 385.13 277.563C382.504 280.188 378.248 280.188 375.623 277.563L369.682 271.621C367.056 268.996 367.056 264.74 369.682 262.115C372.307 259.49 376.563 259.49 379.188 262.115Z" fill="#633001"/>
<path fill-rule="evenodd" clip-rule="evenodd" d="M220.84 242.689C213.619 235.468 213.619 223.76 220.84 216.539C229.022 208.356 242.626 209.616 249.167 219.161L265.639 243.198C280.015 238.586 295.272 239.198 305.382 249.308C314.47 258.396 315.85 271.789 312.769 284.553C309.653 297.46 301.775 311.056 290.19 322.641C278.606 334.225 265.009 342.104 252.102 345.219C239.338 348.3 225.946 346.921 216.857 337.833C206.806 327.781 206.144 312.639 210.665 298.345L186.526 281.803C176.98 275.261 175.721 261.658 183.904 253.475C191.125 246.254 202.832 246.254 210.053 253.475L226.78 270.201C228.436 268.26 230.193 266.356 232.049 264.5C233.842 262.707 235.679 261.007 237.552 259.401L220.84 242.689Z" fill="#633001"/>
<ellipse cx="241.662" cy="303.389" rx="8.08503" ry="11.76" transform="rotate(-45 241.662 303.389)" fill="#DBCDF9"/>
<ellipse cx="271.806" cy="273.245" rx="8.08503" ry="11.76" transform="rotate(-45 271.806 273.245)" fill="#DBCDF9"/>
<path d="M431.915 369.592C430.522 374.901 422.986 374.901 421.592 369.592L414.095 341.024C413.606 339.161 412.151 337.706 410.288 337.217L381.719 329.719C376.411 328.326 376.411 320.79 381.719 319.396L410.288 311.899C412.151 311.41 413.606 309.955 414.095 308.092L421.592 279.523C422.986 274.215 430.522 274.215 431.915 279.523L439.413 308.092C439.902 309.955 441.357 311.41 443.219 311.899L471.788 319.396C477.097 320.79 477.097 328.326 471.788 329.719L443.219 337.217C441.357 337.706 439.902 339.161 439.413 341.024L431.915 369.592Z" fill="#53DEE9"/>
<path d="M175.256 85.4307C176.234 81.7077 181.519 81.7077 182.496 85.4307L187.754 105.466C188.097 106.772 189.117 107.792 190.424 108.135L210.459 113.394C214.182 114.371 214.182 119.656 210.459 120.633L190.424 125.891C189.117 126.234 188.097 127.254 187.754 128.561L182.496 148.596C181.519 152.319 176.234 152.319 175.256 148.596L169.998 128.561C169.655 127.254 168.635 126.234 167.329 125.891L147.294 120.633C143.571 119.656 143.571 114.371 147.294 113.394L167.329 108.135C168.635 107.792 169.655 106.772 169.998 105.466L175.256 85.4307Z" fill="#53DEE9"/>
<path d="M109.8 417.29C109.167 419.703 105.741 419.703 105.108 417.29L101.7 404.305C101.477 403.458 100.816 402.797 99.9693 402.574L86.9836 399.166C84.5706 398.533 84.5706 395.107 86.9836 394.474L99.9693 391.066C100.816 390.844 101.477 390.183 101.7 389.336L105.108 376.35C105.741 373.937 109.167 373.937 109.8 376.35L113.208 389.336C113.43 390.183 114.091 390.844 114.938 391.066L127.924 394.474C130.337 395.107 130.337 398.533 127.924 399.166L114.938 402.574C114.091 402.797 113.43 403.458 113.208 404.305L109.8 417.29Z" fill="#53DEE9"/>
<defs>
<linearGradient id="paint0_linear" x1="256" y1="0" x2="256" y2="512" gradientUnits="userSpaceOnUse">
<stop stop-color="#54DADE"/>
<stop offset="0.762157" stop-color="#24C7D6"/>
</linearGradient>
</defs>
</svg>
