<svg width="215" height="215" viewBox="0 0 215 215" fill="none" xmlns="http://www.w3.org/2000/svg">
<path d="M205.018 77.0027C207.176 79.16 207.473 82.5546 205.723 85.0541C173.717 130.784 134.138 170.714 88.6933 203.125L85.1044 205.684C82.4727 207.561 78.8701 207.262 76.5844 204.976L60.4284 188.82C69.9656 178.944 69.8609 163.207 60.1141 153.46C50.3674 143.713 34.6299 143.609 24.7544 153.146L9.89386 138.285C7.06785 135.459 7.45754 130.772 10.7114 128.451L14.3024 125.89C58.6487 94.2632 97.2705 55.298 128.504 10.6736C130.691 7.54789 135.171 7.15552 137.869 9.85335L152.994 24.978C143.492 34.8558 143.609 50.5662 153.343 60.3008C163.078 70.0354 178.788 70.152 188.666 60.6507L205.018 77.0027Z" fill="#DBCDF9"/>
<path d="M212.179 81.4707L154.42 154.608L79.7144 211.158L65.3473 196.687L60.1638 190.403L65.3473 182.903L67.1638 175.403L66.1638 167.403L63.1638 159.903L58.1638 153.903L52.1638 149.903L45.6638 147.903H37.6638L29.1638 150.903L24.1638 155.403L12.1638 140.903L31.6844 137.992C92.2308 128.962 149.438 104.515 197.812 67L212.179 81.4707Z" fill="#A28BD4"/>
<path fill-rule="evenodd" clip-rule="evenodd" d="M53.1382 189.521C53.1405 187.397 53.9878 185.36 55.4933 183.861L55.5199 183.834C62.2484 177.106 62.2484 166.197 55.5199 159.469C48.7915 152.74 37.8825 152.74 31.1541 159.469L31.1275 159.495C29.6284 161.001 27.5919 161.848 25.4672 161.85C23.3426 161.852 21.3043 161.009 19.802 159.507L4.23701 143.942C-2.08626 137.619 -1.21434 127.13 6.06627 121.938L9.65731 119.377L14.3024 125.89L10.7114 128.451C7.45755 130.772 7.06786 135.459 9.89387 138.285L25.4588 153.85L25.4973 153.812C25.5095 153.799 25.5218 153.787 25.5341 153.775C35.3897 143.959 51.3364 143.971 61.1768 153.812C71.0164 163.651 71.0294 179.596 61.2158 189.452C61.2028 189.465 61.1898 189.478 61.1768 189.491L61.1382 189.53L76.5844 204.976C78.8701 207.262 82.4727 207.561 85.1044 205.684L88.6933 203.125C134.138 170.714 173.717 130.784 205.723 85.0541C207.473 82.5546 207.176 79.16 205.018 77.0027L188.793 60.7779C188.734 60.8379 188.675 60.8978 188.616 60.9574C188.556 61.0172 188.496 61.0765 188.436 61.1355C178.569 70.8097 162.729 70.7503 152.936 60.9574C143.143 51.1643 143.084 35.3234 152.758 25.4572C152.817 25.3972 152.877 25.3375 152.936 25.2779C152.996 25.2183 153.056 25.159 153.116 25.1001L137.869 9.85339C135.171 7.15557 130.691 7.54794 128.504 10.6737C97.2705 55.2981 58.6487 94.2632 14.3024 125.89L9.65731 119.377C53.2622 88.2786 91.2385 49.9648 121.95 6.08638C126.99 -1.11489 137.31 -2.01885 143.526 4.19654L158.772 19.4432C160.282 20.9531 161.126 23.004 161.116 25.1393C161.105 27.2745 160.241 29.317 158.717 30.8121C158.675 30.8526 158.634 30.8935 158.593 30.9348C151.865 37.6632 151.865 48.5721 158.593 55.3006C165.321 62.029 176.23 62.029 182.959 55.3006C183 55.2597 183.04 55.2184 183.081 55.1767C184.576 53.6521 186.619 52.7884 188.754 52.7779C190.89 52.7675 192.94 53.6111 194.45 55.121L210.675 71.3459C215.577 76.2479 216.253 83.9617 212.278 89.6414C179.749 136.117 139.525 176.699 93.3384 209.638L89.7496 212.197C83.9357 216.344 75.9769 215.682 70.9275 210.633L55.4814 195.187C53.979 193.684 53.136 191.646 53.1382 189.521Z" fill="#633001"/>
<path fill-rule="evenodd" clip-rule="evenodd" d="M107.469 37.804L111.004 41.3395C112.566 42.9016 112.566 45.4343 111.004 46.9964C109.442 48.5585 106.909 48.5585 105.347 46.9964L101.812 43.4609C100.25 41.8988 100.25 39.3661 101.812 37.804C103.374 36.2419 105.907 36.2419 107.469 37.804Z" fill="#633001"/>
<path fill-rule="evenodd" clip-rule="evenodd" d="M122.318 52.6533L125.854 56.1888C127.416 57.7509 127.416 60.2835 125.854 61.8456C124.292 63.4077 121.759 63.4077 120.197 61.8456L116.661 58.3101C115.099 56.748 115.099 54.2154 116.661 52.6533C118.224 51.0912 120.756 51.0912 122.318 52.6533Z" fill="#633001"/>
<path fill-rule="evenodd" clip-rule="evenodd" d="M140.703 76.6949C139.141 78.257 136.608 78.257 135.046 76.6949L130.803 72.4522C129.241 70.8901 129.241 68.3575 130.803 66.7954C132.366 65.2333 134.898 65.2333 136.46 66.7954L140.703 71.038C142.265 72.6001 142.265 75.1328 140.703 76.6949Z" fill="#633001"/>
<path fill-rule="evenodd" clip-rule="evenodd" d="M155.552 91.5441C153.99 93.1062 151.457 93.1062 149.895 91.5441L145.653 87.3015C144.09 85.7394 144.09 83.2067 145.653 81.6446C147.215 80.0825 149.747 80.0825 151.309 81.6446L155.552 85.8873C157.114 87.4494 157.114 89.982 155.552 91.5441Z" fill="#633001"/>
<path fill-rule="evenodd" clip-rule="evenodd" d="M166.159 96.4938L169.694 100.029C171.256 101.591 171.256 104.124 169.694 105.686C168.132 107.248 165.599 107.248 164.037 105.686L160.502 102.151C158.94 100.589 158.94 98.0559 160.502 96.4938C162.064 94.9317 164.597 94.9317 166.159 96.4938Z" fill="#633001"/>
<path fill-rule="evenodd" clip-rule="evenodd" d="M181.008 111.343L184.543 114.879C186.105 116.441 186.105 118.973 184.543 120.535C182.981 122.098 180.449 122.098 178.886 120.535L175.351 117C173.789 115.438 173.789 112.905 175.351 111.343C176.913 109.781 179.446 109.781 181.008 111.343Z" fill="#633001"/>
<path fill-rule="evenodd" clip-rule="evenodd" d="M86.7822 99.7834C82.4853 95.4866 82.4853 88.52 86.7822 84.2231C91.6513 79.354 99.7459 80.1033 103.639 85.7835L113.44 100.086C121.995 97.342 131.073 97.7063 137.089 103.722C142.497 109.13 143.318 117.1 141.485 124.695C139.631 132.375 134.943 140.466 128.049 147.359C121.156 154.252 113.065 158.941 105.385 160.794C97.7899 162.628 89.8204 161.807 84.4125 156.399C78.4314 150.418 78.0376 141.407 80.7279 132.902L66.3639 123.058C60.6836 119.166 59.9343 111.071 64.8034 106.202C69.1003 101.905 76.0669 101.905 80.3637 106.202L90.3168 116.155C91.3022 115 92.3481 113.867 93.4526 112.762C94.5192 111.696 95.6126 110.684 96.7267 109.728L86.7822 99.7834Z" fill="#633001"/>
<ellipse cx="99.1726" cy="135.903" rx="4.81101" ry="6.99784" transform="rotate(-45 99.1726 135.903)" fill="#DBCDF9"/>
<ellipse cx="117.11" cy="117.966" rx="4.81101" ry="6.99784" transform="rotate(-45 117.11 117.966)" fill="#DBCDF9"/>
</svg>
